G04*
G04 #@! TF.GenerationSoftware,Altium Limited,Altium Designer,21.6.4 (81)*
G04*
G04 Layer_Color=16711935*
%FSLAX23Y23*%
%MOIN*%
G70*
G04*
G04 #@! TF.SameCoordinates,B862E28A-B53C-4780-801C-F1A4676C09CD*
G04*
G04*
G04 #@! TF.FilePolarity,Negative*
G04*
G01*
G75*
%ADD53C,0.069*%
%ADD54R,0.069X0.069*%
%ADD55C,0.126*%
%ADD56C,0.073*%
G04:AMPARAMS|DCode=57|XSize=73mil|YSize=73mil|CornerRadius=20mil|HoleSize=0mil|Usage=FLASHONLY|Rotation=0.000|XOffset=0mil|YOffset=0mil|HoleType=Round|Shape=RoundedRectangle|*
%AMROUNDEDRECTD57*
21,1,0.073,0.032,0,0,0.0*
21,1,0.032,0.073,0,0,0.0*
1,1,0.040,0.016,-0.016*
1,1,0.040,-0.016,-0.016*
1,1,0.040,-0.016,0.016*
1,1,0.040,0.016,0.016*
%
%ADD57ROUNDEDRECTD57*%
%ADD58C,0.071*%
G04:AMPARAMS|DCode=59|XSize=71mil|YSize=71mil|CornerRadius=20mil|HoleSize=0mil|Usage=FLASHONLY|Rotation=180.000|XOffset=0mil|YOffset=0mil|HoleType=Round|Shape=RoundedRectangle|*
%AMROUNDEDRECTD59*
21,1,0.071,0.031,0,0,180.0*
21,1,0.031,0.071,0,0,180.0*
1,1,0.039,-0.016,0.016*
1,1,0.039,0.016,0.016*
1,1,0.039,0.016,-0.016*
1,1,0.039,-0.016,-0.016*
%
%ADD59ROUNDEDRECTD59*%
G04:AMPARAMS|DCode=60|XSize=71mil|YSize=71mil|CornerRadius=20mil|HoleSize=0mil|Usage=FLASHONLY|Rotation=90.000|XOffset=0mil|YOffset=0mil|HoleType=Round|Shape=RoundedRectangle|*
%AMROUNDEDRECTD60*
21,1,0.071,0.031,0,0,90.0*
21,1,0.031,0.071,0,0,90.0*
1,1,0.039,0.016,0.016*
1,1,0.039,0.016,-0.016*
1,1,0.039,-0.016,-0.016*
1,1,0.039,-0.016,0.016*
%
%ADD60ROUNDEDRECTD60*%
%ADD61C,0.099*%
%ADD62R,0.099X0.099*%
%ADD63C,0.028*%
D53*
X1390Y1850D02*
D03*
X1040Y1950D02*
D03*
X1520Y380D02*
D03*
X750Y970D02*
D03*
D54*
X1490Y1850D02*
D03*
X1140Y1950D02*
D03*
X1620Y380D02*
D03*
X850Y970D02*
D03*
D55*
X2658Y1605D02*
D03*
X1593Y3180D02*
D03*
X528Y1605D02*
D03*
D56*
X2300Y1300D02*
D03*
Y1200D02*
D03*
X2100Y1300D02*
D03*
Y1200D02*
D03*
X2000Y1300D02*
D03*
Y1200D02*
D03*
X1700Y1300D02*
D03*
Y1200D02*
D03*
X1600Y1300D02*
D03*
X1800Y1200D02*
D03*
Y1300D02*
D03*
X1900Y1200D02*
D03*
Y1300D02*
D03*
X2200Y1200D02*
D03*
Y1300D02*
D03*
X2400Y1200D02*
D03*
X2500D02*
D03*
X2400Y1300D02*
D03*
X2500D02*
D03*
D57*
X1600Y1200D02*
D03*
D58*
X630Y1300D02*
D03*
X730D02*
D03*
X930D02*
D03*
X1130D02*
D03*
X1230D02*
D03*
X1030D02*
D03*
X830D02*
D03*
X530D02*
D03*
X430D02*
D03*
X3110Y1100D02*
D03*
Y1000D02*
D03*
Y800D02*
D03*
Y600D02*
D03*
Y500D02*
D03*
Y700D02*
D03*
Y900D02*
D03*
Y1200D02*
D03*
Y1300D02*
D03*
D59*
X1330D02*
D03*
D60*
X3110Y400D02*
D03*
D61*
X2000Y200D02*
D03*
X2156D02*
D03*
X2312D02*
D03*
X600D02*
D03*
X444D02*
D03*
X288D02*
D03*
D62*
X2468D02*
D03*
X756D02*
D03*
D63*
X910Y590D02*
D03*
X880Y730D02*
D03*
X1270Y2000D02*
D03*
X420Y620D02*
D03*
X700Y725D02*
D03*
X675Y515D02*
D03*
X2955Y550D02*
D03*
X1875Y710D02*
D03*
Y665D02*
D03*
X2255Y355D02*
D03*
X2055Y640D02*
D03*
X1670Y965D02*
D03*
X1875Y560D02*
D03*
X2000Y685D02*
D03*
X2200Y920D02*
D03*
X2210Y865D02*
D03*
X2175Y965D02*
D03*
X2135Y1015D02*
D03*
X1875Y970D02*
D03*
X1920Y920D02*
D03*
X1945Y880D02*
D03*
X2300Y660D02*
D03*
X2290Y725D02*
D03*
X2235Y730D02*
D03*
X1295Y295D02*
D03*
X1810Y560D02*
D03*
Y420D02*
D03*
X1560Y860D02*
D03*
X1300Y1460D02*
D03*
X1630D02*
D03*
X1250Y1510D02*
D03*
X1930D02*
D03*
X1170Y1150D02*
D03*
X1300D02*
D03*
X2080Y1490D02*
D03*
X1340Y2170D02*
D03*
X1150Y1830D02*
D03*
Y1690D02*
D03*
X1220Y1740D02*
D03*
X1990Y2270D02*
D03*
X1970Y2100D02*
D03*
X1190Y2220D02*
D03*
X2020Y1900D02*
D03*
X1180Y730D02*
D03*
X1050D02*
D03*
X1060Y2420D02*
D03*
X1960Y2470D02*
D03*
X1710Y640D02*
D03*
X560Y660D02*
D03*
X1120Y470D02*
D03*
M02*
