G04*
G04 #@! TF.GenerationSoftware,Altium Limited,Altium Designer,21.6.4 (81)*
G04*
G04 Layer_Physical_Order=1*
G04 Layer_Color=255*
%FSLAX23Y23*%
%MOIN*%
G70*
G04*
G04 #@! TF.SameCoordinates,B862E28A-B53C-4780-801C-F1A4676C09CD*
G04*
G04*
G04 #@! TF.FilePolarity,Positive*
G04*
G01*
G75*
%ADD16C,0.010*%
%ADD17C,0.020*%
%ADD18C,0.015*%
%ADD19R,0.051X0.019*%
%ADD20R,0.063X0.224*%
%ADD21R,0.051X0.059*%
%ADD22R,0.059X0.051*%
%ADD23R,0.026X0.035*%
%ADD24R,0.035X0.026*%
G04:AMPARAMS|DCode=25|XSize=19mil|YSize=24mil|CornerRadius=2mil|HoleSize=0mil|Usage=FLASHONLY|Rotation=0.000|XOffset=0mil|YOffset=0mil|HoleType=Round|Shape=RoundedRectangle|*
%AMROUNDEDRECTD25*
21,1,0.019,0.020,0,0,0.0*
21,1,0.015,0.024,0,0,0.0*
1,1,0.004,0.008,-0.010*
1,1,0.004,-0.008,-0.010*
1,1,0.004,-0.008,0.010*
1,1,0.004,0.008,0.010*
%
%ADD25ROUNDEDRECTD25*%
G04:AMPARAMS|DCode=26|XSize=19mil|YSize=24mil|CornerRadius=2mil|HoleSize=0mil|Usage=FLASHONLY|Rotation=270.000|XOffset=0mil|YOffset=0mil|HoleType=Round|Shape=RoundedRectangle|*
%AMROUNDEDRECTD26*
21,1,0.019,0.020,0,0,270.0*
21,1,0.015,0.024,0,0,270.0*
1,1,0.004,-0.010,-0.008*
1,1,0.004,-0.010,0.008*
1,1,0.004,0.010,0.008*
1,1,0.004,0.010,-0.008*
%
%ADD26ROUNDEDRECTD26*%
%ADD27R,0.087X0.047*%
%ADD28R,0.059X0.051*%
%ADD29R,0.094X0.031*%
%ADD30R,0.051X0.035*%
G04:AMPARAMS|DCode=31|XSize=26mil|YSize=12mil|CornerRadius=1mil|HoleSize=0mil|Usage=FLASHONLY|Rotation=180.000|XOffset=0mil|YOffset=0mil|HoleType=Round|Shape=RoundedRectangle|*
%AMROUNDEDRECTD31*
21,1,0.026,0.010,0,0,180.0*
21,1,0.024,0.012,0,0,180.0*
1,1,0.002,-0.012,0.005*
1,1,0.002,0.012,0.005*
1,1,0.002,0.012,-0.005*
1,1,0.002,-0.012,-0.005*
%
%ADD31ROUNDEDRECTD31*%
%ADD32R,0.020X0.020*%
%ADD33O,0.053X0.016*%
G04:AMPARAMS|DCode=34|XSize=37mil|YSize=16mil|CornerRadius=2mil|HoleSize=0mil|Usage=FLASHONLY|Rotation=180.000|XOffset=0mil|YOffset=0mil|HoleType=Round|Shape=RoundedRectangle|*
%AMROUNDEDRECTD34*
21,1,0.037,0.012,0,0,180.0*
21,1,0.033,0.016,0,0,180.0*
1,1,0.004,-0.017,0.006*
1,1,0.004,0.017,0.006*
1,1,0.004,0.017,-0.006*
1,1,0.004,-0.017,-0.006*
%
%ADD34ROUNDEDRECTD34*%
G04:AMPARAMS|DCode=35|XSize=40mil|YSize=125mil|CornerRadius=17mil|HoleSize=0mil|Usage=FLASHONLY|Rotation=0.000|XOffset=0mil|YOffset=0mil|HoleType=Round|Shape=RoundedRectangle|*
%AMROUNDEDRECTD35*
21,1,0.040,0.091,0,0,0.0*
21,1,0.005,0.125,0,0,0.0*
1,1,0.034,0.003,-0.045*
1,1,0.034,-0.003,-0.045*
1,1,0.034,-0.003,0.045*
1,1,0.034,0.003,0.045*
%
%ADD35ROUNDEDRECTD35*%
G04:AMPARAMS|DCode=36|XSize=40mil|YSize=34mil|CornerRadius=17mil|HoleSize=0mil|Usage=FLASHONLY|Rotation=0.000|XOffset=0mil|YOffset=0mil|HoleType=Round|Shape=RoundedRectangle|*
%AMROUNDEDRECTD36*
21,1,0.040,0.000,0,0,0.0*
21,1,0.005,0.034,0,0,0.0*
1,1,0.034,0.003,0.000*
1,1,0.034,-0.003,0.000*
1,1,0.034,-0.003,0.000*
1,1,0.034,0.003,0.000*
%
%ADD36ROUNDEDRECTD36*%
%ADD37R,0.040X0.034*%
%ADD38R,0.059X0.047*%
%ADD64C,0.030*%
%ADD65C,0.025*%
%ADD66C,0.061*%
%ADD67R,0.061X0.061*%
%ADD68C,0.118*%
%ADD69C,0.065*%
G04:AMPARAMS|DCode=70|XSize=65mil|YSize=65mil|CornerRadius=16mil|HoleSize=0mil|Usage=FLASHONLY|Rotation=0.000|XOffset=0mil|YOffset=0mil|HoleType=Round|Shape=RoundedRectangle|*
%AMROUNDEDRECTD70*
21,1,0.065,0.032,0,0,0.0*
21,1,0.032,0.065,0,0,0.0*
1,1,0.032,0.016,-0.016*
1,1,0.032,-0.016,-0.016*
1,1,0.032,-0.016,0.016*
1,1,0.032,0.016,0.016*
%
%ADD70ROUNDEDRECTD70*%
%ADD71C,0.063*%
G04:AMPARAMS|DCode=72|XSize=63mil|YSize=63mil|CornerRadius=16mil|HoleSize=0mil|Usage=FLASHONLY|Rotation=180.000|XOffset=0mil|YOffset=0mil|HoleType=Round|Shape=RoundedRectangle|*
%AMROUNDEDRECTD72*
21,1,0.063,0.031,0,0,180.0*
21,1,0.031,0.063,0,0,180.0*
1,1,0.031,-0.016,0.016*
1,1,0.031,0.016,0.016*
1,1,0.031,0.016,-0.016*
1,1,0.031,-0.016,-0.016*
%
%ADD72ROUNDEDRECTD72*%
G04:AMPARAMS|DCode=73|XSize=63mil|YSize=63mil|CornerRadius=16mil|HoleSize=0mil|Usage=FLASHONLY|Rotation=90.000|XOffset=0mil|YOffset=0mil|HoleType=Round|Shape=RoundedRectangle|*
%AMROUNDEDRECTD73*
21,1,0.063,0.031,0,0,90.0*
21,1,0.031,0.063,0,0,90.0*
1,1,0.031,0.016,0.016*
1,1,0.031,0.016,-0.016*
1,1,0.031,-0.016,-0.016*
1,1,0.031,-0.016,0.016*
%
%ADD73ROUNDEDRECTD73*%
%ADD74C,0.091*%
%ADD75R,0.091X0.091*%
%ADD76C,0.020*%
G36*
X3180Y1460D02*
X2355D01*
X2318Y1498D01*
X2310Y1501D01*
X2310Y1501D01*
X2087D01*
X2085Y1503D01*
X2075D01*
X2068Y1495D01*
Y1485D01*
X2075Y1477D01*
X2085D01*
X2087Y1479D01*
X2306D01*
X2320Y1465D01*
X2318Y1460D01*
X1982D01*
X1980Y1465D01*
X2278Y1762D01*
X2278Y1762D01*
X2281Y1770D01*
X2281Y1770D01*
Y2174D01*
X2281Y2174D01*
X2278Y2182D01*
X2278Y2182D01*
X2116Y2344D01*
Y2357D01*
X2055D01*
Y2328D01*
X2101D01*
X2259Y2170D01*
Y1774D01*
X1975Y1490D01*
X1965D01*
X1942Y1513D01*
Y1515D01*
X1935Y1523D01*
X1925D01*
X1918Y1515D01*
Y1505D01*
X1925Y1497D01*
X1927D01*
X1951Y1474D01*
Y1466D01*
X1945Y1460D01*
X1722D01*
X1720Y1465D01*
X2113Y1858D01*
X2113Y1858D01*
X2116Y1865D01*
X2116Y1865D01*
Y1948D01*
X2136D01*
Y1977D01*
X2075D01*
Y1948D01*
X2095D01*
Y1870D01*
X1696Y1471D01*
X1637D01*
X1635Y1472D01*
X1625D01*
X1617Y1465D01*
Y1460D01*
X1460D01*
X1440Y1440D01*
Y1391D01*
X1401D01*
Y1570D01*
X1401Y1570D01*
X1398Y1578D01*
X1398Y1578D01*
X1232Y1743D01*
Y1745D01*
X1225Y1753D01*
X1215D01*
X1207Y1745D01*
Y1735D01*
X1215Y1727D01*
X1217D01*
X1379Y1566D01*
Y1391D01*
X1000D01*
X992Y1388D01*
X992Y1388D01*
X939Y1334D01*
X916D01*
X896Y1314D01*
Y1286D01*
X916Y1266D01*
X944D01*
X964Y1286D01*
Y1314D01*
X957Y1321D01*
X1004Y1369D01*
X1440D01*
Y1122D01*
X1435Y1120D01*
X1341Y1214D01*
Y1265D01*
X1346D01*
X1360Y1270D01*
X1365Y1284D01*
Y1316D01*
X1360Y1330D01*
X1346Y1335D01*
X1314D01*
X1300Y1330D01*
X1295Y1316D01*
Y1284D01*
X1300Y1270D01*
X1314Y1265D01*
X1319D01*
Y1210D01*
X1319Y1210D01*
X1322Y1202D01*
X1440Y1085D01*
Y1002D01*
X1435Y1000D01*
X1311Y1125D01*
Y1143D01*
X1312Y1145D01*
Y1155D01*
X1305Y1163D01*
X1295D01*
X1288Y1155D01*
Y1145D01*
X1289Y1143D01*
Y1120D01*
X1289Y1120D01*
X1292Y1113D01*
X1440Y965D01*
Y900D01*
X1241D01*
Y1266D01*
X1244D01*
X1264Y1286D01*
Y1314D01*
X1244Y1334D01*
X1216D01*
X1196Y1314D01*
Y1286D01*
X1216Y1266D01*
X1219D01*
Y900D01*
X772D01*
Y945D01*
X783Y956D01*
Y984D01*
X764Y1003D01*
X736D01*
X717Y984D01*
Y956D01*
X728Y945D01*
Y900D01*
X444D01*
Y1266D01*
X444D01*
X464Y1286D01*
Y1314D01*
X444Y1334D01*
X416D01*
X396Y1314D01*
Y1286D01*
X416Y1266D01*
X416D01*
Y900D01*
X20D01*
Y3000D01*
X3180D01*
Y1460D01*
D02*
G37*
G36*
Y20D02*
X1540D01*
Y157D01*
X1603D01*
Y125D01*
X1610Y108D01*
X1627Y101D01*
X1632D01*
X1649Y108D01*
X1656Y125D01*
Y216D01*
X1649Y233D01*
X1632Y240D01*
X1627D01*
X1610Y233D01*
X1603Y216D01*
Y184D01*
X1540D01*
Y353D01*
X1553Y366D01*
Y394D01*
X1540Y407D01*
Y489D01*
X2020D01*
X2020Y489D01*
X2028Y492D01*
X2109Y574D01*
X2137D01*
X2144Y571D01*
X2152D01*
Y533D01*
X2150D01*
X2145Y531D01*
X2143Y526D01*
Y510D01*
X2145Y505D01*
X2150Y503D01*
X2170D01*
X2175Y505D01*
X2177Y510D01*
Y526D01*
X2175Y531D01*
X2174Y531D01*
Y571D01*
X2182D01*
X2192Y575D01*
X2196Y585D01*
X2211Y600D01*
X2214D01*
X2233Y596D01*
Y580D01*
X2235Y575D01*
X2240Y573D01*
X2260D01*
X2265Y575D01*
X2267Y580D01*
Y596D01*
X2265Y601D01*
X2260Y603D01*
X2254D01*
X2253Y606D01*
X2253Y606D01*
X2241Y618D01*
X2233Y621D01*
X2233Y621D01*
X2225D01*
X2207Y639D01*
X2207Y646D01*
X2212Y650D01*
X2292D01*
X2295Y647D01*
X2305D01*
X2312Y655D01*
Y665D01*
X2305Y673D01*
X2301D01*
X2298Y679D01*
X2298Y697D01*
X2301Y705D01*
X2301Y705D01*
Y718D01*
X2303Y720D01*
Y730D01*
X2318Y740D01*
X2323Y742D01*
X2339Y726D01*
Y564D01*
X2148Y374D01*
X2145Y366D01*
X2145Y366D01*
Y248D01*
X2136D01*
X2108Y220D01*
Y180D01*
X2136Y152D01*
X2176D01*
X2204Y180D01*
Y220D01*
X2176Y248D01*
X2167D01*
Y362D01*
X2358Y552D01*
X2358Y552D01*
X2361Y560D01*
Y730D01*
X2361Y730D01*
X2358Y738D01*
X2358Y738D01*
X2337Y759D01*
X2345Y779D01*
X3016D01*
X3078Y716D01*
X3076Y714D01*
Y686D01*
X3096Y666D01*
X3124D01*
X3144Y686D01*
Y714D01*
X3124Y734D01*
X3096D01*
X3094Y732D01*
X3041Y784D01*
X3049Y804D01*
X3076D01*
Y786D01*
X3096Y766D01*
X3124D01*
X3144Y786D01*
Y814D01*
X3124Y834D01*
X3096D01*
X3086Y824D01*
X3081Y826D01*
X3081Y826D01*
X2189D01*
X2182Y829D01*
X2144D01*
X2126Y842D01*
Y930D01*
X2126Y930D01*
X2123Y938D01*
X2123Y938D01*
X1915Y1145D01*
X1914Y1165D01*
X1935Y1186D01*
Y1214D01*
X1914Y1235D01*
X1886D01*
X1865Y1214D01*
Y1186D01*
X1883Y1167D01*
X1883Y1155D01*
X1864Y1147D01*
X1830Y1180D01*
X1835Y1186D01*
Y1214D01*
X1814Y1235D01*
X1786D01*
X1765Y1214D01*
Y1186D01*
X1786Y1165D01*
X1814D01*
X1815Y1165D01*
X2069Y911D01*
Y739D01*
X2049Y731D01*
X2035Y745D01*
X2027Y749D01*
X2027Y749D01*
X1985D01*
X1969Y764D01*
X1965Y774D01*
X1965Y780D01*
X1969Y790D01*
X1969Y790D01*
X1966Y802D01*
X1969Y815D01*
X1969Y815D01*
X1965Y825D01*
X1956Y829D01*
X1948D01*
Y867D01*
X1948Y868D01*
X1950D01*
X1957Y875D01*
Y885D01*
X1950Y892D01*
X1940D01*
X1933Y885D01*
Y883D01*
X1929Y879D01*
X1926Y872D01*
X1926Y872D01*
Y829D01*
X1918D01*
X1908Y825D01*
X1900Y823D01*
X1881Y839D01*
Y901D01*
X1889Y909D01*
X1913D01*
X1915Y908D01*
X1925D01*
X1933Y915D01*
Y925D01*
X1925Y933D01*
X1915D01*
X1913Y931D01*
X1885D01*
X1885Y931D01*
X1882Y930D01*
X1865Y934D01*
X1859Y938D01*
X1859Y938D01*
X1878Y957D01*
X1880D01*
X1888Y965D01*
Y975D01*
X1880Y983D01*
X1870D01*
X1862Y975D01*
Y973D01*
X1827Y938D01*
X1824Y930D01*
X1824Y930D01*
Y805D01*
X1824Y805D01*
X1827Y797D01*
X1855Y769D01*
X1847Y749D01*
X1806D01*
X1540Y1015D01*
Y1302D01*
X1560Y1312D01*
X1565Y1307D01*
Y1286D01*
X1586Y1265D01*
X1614D01*
X1635Y1286D01*
Y1314D01*
X1614Y1335D01*
X1593D01*
X1588Y1340D01*
X1598Y1360D01*
X1689D01*
Y1335D01*
X1686D01*
X1665Y1314D01*
Y1286D01*
X1686Y1265D01*
X1714D01*
X1735Y1286D01*
Y1314D01*
X1714Y1335D01*
X1711D01*
Y1360D01*
X1802D01*
X1812Y1340D01*
X1807Y1335D01*
X1786D01*
X1765Y1314D01*
Y1286D01*
X1786Y1265D01*
X1814D01*
X1835Y1286D01*
Y1314D01*
X1832Y1317D01*
X1875Y1360D01*
X2425D01*
X2468Y1317D01*
X2465Y1314D01*
Y1286D01*
X2486Y1265D01*
X2514D01*
X2535Y1286D01*
Y1314D01*
X2514Y1335D01*
X2493D01*
X2488Y1340D01*
X2498Y1360D01*
X3180D01*
Y20D01*
D02*
G37*
%LPC*%
G36*
X1960Y2484D02*
X1958Y2483D01*
X1955D01*
X1953Y2481D01*
X1950Y2480D01*
X1949Y2477D01*
X1947Y2475D01*
Y2472D01*
X1946Y2470D01*
X1947Y2468D01*
Y2465D01*
X1949Y2463D01*
X1950Y2460D01*
X1960Y2450D01*
Y2422D01*
X1964Y2413D01*
Y2403D01*
X2025D01*
Y2432D01*
X1987D01*
Y2456D01*
X1984Y2466D01*
X1970Y2480D01*
X1967Y2481D01*
X1965Y2483D01*
X1962D01*
X1960Y2484D01*
D02*
G37*
G36*
X1351Y2477D02*
X1278D01*
Y2381D01*
X1206D01*
Y2382D01*
X1145D01*
Y2364D01*
X1140D01*
X1130Y2360D01*
X1115Y2344D01*
X1054D01*
Y2316D01*
X1115D01*
Y2316D01*
X1120D01*
X1130Y2320D01*
X1140Y2331D01*
X1145Y2329D01*
Y2316D01*
X1206D01*
Y2344D01*
X1189D01*
Y2353D01*
X1206D01*
Y2354D01*
X1278D01*
Y2243D01*
X1351D01*
Y2477D01*
D02*
G37*
G36*
X1902D02*
X1829D01*
Y2243D01*
X1902D01*
Y2366D01*
X1964D01*
Y2366D01*
X2025D01*
Y2366D01*
X2040D01*
X2050Y2370D01*
X2050Y2371D01*
X2055Y2369D01*
Y2366D01*
X2116D01*
Y2394D01*
X2099D01*
Y2403D01*
X2116D01*
Y2432D01*
X2055D01*
Y2411D01*
X2049Y2408D01*
X2034Y2394D01*
X2025D01*
Y2394D01*
X1964D01*
Y2394D01*
X1902D01*
Y2477D01*
D02*
G37*
G36*
X1060Y2434D02*
X1058Y2432D01*
X1055D01*
X1053Y2431D01*
X1050Y2430D01*
X1049Y2427D01*
X1048Y2425D01*
Y2422D01*
X1046Y2420D01*
X1048Y2418D01*
Y2415D01*
X1049Y2413D01*
X1050Y2410D01*
X1071Y2390D01*
Y2382D01*
X1054D01*
Y2353D01*
X1115D01*
Y2382D01*
X1098D01*
Y2395D01*
X1094Y2405D01*
X1070Y2430D01*
X1067Y2431D01*
X1065Y2432D01*
X1062D01*
X1060Y2434D01*
D02*
G37*
G36*
X2025Y2357D02*
X1964D01*
Y2328D01*
X1984D01*
Y2282D01*
X1982Y2280D01*
X1982Y2280D01*
X1977Y2275D01*
Y2265D01*
X1985Y2257D01*
X1995D01*
X2003Y2265D01*
Y2270D01*
X2005Y2277D01*
X2005Y2277D01*
Y2328D01*
X2025D01*
Y2357D01*
D02*
G37*
G36*
X1206Y2307D02*
X1145D01*
Y2278D01*
X1165D01*
Y2235D01*
X1165Y2235D01*
X1168Y2227D01*
X1178Y2217D01*
Y2215D01*
X1185Y2207D01*
X1195D01*
X1202Y2215D01*
Y2225D01*
X1195Y2233D01*
X1193D01*
X1186Y2239D01*
Y2278D01*
X1206D01*
Y2307D01*
D02*
G37*
G36*
X1115D02*
X1054D01*
Y2278D01*
X1074D01*
Y2205D01*
X1074Y2205D01*
X1077Y2198D01*
X1112Y2162D01*
X1112Y2162D01*
X1120Y2159D01*
X1333D01*
X1335Y2158D01*
X1345D01*
X1352Y2165D01*
Y2175D01*
X1345Y2182D01*
X1335D01*
X1333Y2181D01*
X1124D01*
X1095Y2210D01*
Y2278D01*
X1115D01*
Y2307D01*
D02*
G37*
G36*
X1415Y2111D02*
X1345D01*
Y2049D01*
X1415D01*
Y2111D01*
D02*
G37*
G36*
X1450Y2040D02*
X1345D01*
Y2031D01*
X1277D01*
X1277Y2031D01*
X1269Y2028D01*
X1269Y2028D01*
X1264Y2022D01*
X1260Y2014D01*
X1260Y2014D01*
Y2008D01*
X1258Y2005D01*
Y1995D01*
X1265Y1987D01*
X1275D01*
X1283Y1995D01*
Y2005D01*
X1286Y2009D01*
X1345D01*
Y1998D01*
X1450D01*
Y2040D01*
D02*
G37*
G36*
X1970Y2114D02*
X1968Y2112D01*
X1965D01*
X1963Y2111D01*
X1960Y2110D01*
X1959Y2107D01*
X1957Y2105D01*
Y2102D01*
X1956Y2100D01*
X1957Y2098D01*
Y2095D01*
X1959Y2093D01*
X1960Y2090D01*
X1980Y2070D01*
Y2042D01*
X1984Y2033D01*
Y2023D01*
X2045D01*
Y2052D01*
X2007D01*
Y2076D01*
X2004Y2086D01*
X1980Y2110D01*
X1977Y2111D01*
X1975Y2112D01*
X1972D01*
X1970Y2114D01*
D02*
G37*
G36*
X1899Y2117D02*
X1826D01*
Y1883D01*
X1899D01*
Y1986D01*
X1984D01*
Y1986D01*
X2045D01*
Y1986D01*
X2060D01*
X2070Y1990D01*
X2070Y1991D01*
X2075Y1989D01*
Y1986D01*
X2136D01*
Y2014D01*
X2119D01*
Y2023D01*
X2136D01*
Y2052D01*
X2075D01*
Y2031D01*
X2069Y2028D01*
X2054Y2014D01*
X2045D01*
Y2014D01*
X1984D01*
Y2014D01*
X1899D01*
Y2117D01*
D02*
G37*
G36*
X2045Y1977D02*
X1984D01*
Y1948D01*
X2004D01*
Y1905D01*
X2004Y1905D01*
X2007Y1898D01*
X2007Y1897D01*
Y1895D01*
X2015Y1888D01*
X2025D01*
X2033Y1895D01*
Y1905D01*
X2025Y1912D01*
Y1948D01*
X2045D01*
Y1977D01*
D02*
G37*
G36*
X1496Y2091D02*
X1496Y2091D01*
X1476D01*
X1469Y2088D01*
X1466Y2080D01*
X1469Y2072D01*
X1476Y2069D01*
X1492D01*
X1515Y2046D01*
X1513Y2042D01*
X1464D01*
Y2008D01*
X1463Y2006D01*
X1463Y2006D01*
Y2003D01*
X1421Y1961D01*
X1173D01*
Y1983D01*
X1107D01*
Y1917D01*
X1173D01*
Y1939D01*
X1425D01*
X1425Y1939D01*
X1433Y1942D01*
X1481Y1991D01*
X1481Y1991D01*
X1484Y1996D01*
X1525D01*
Y2030D01*
X1529Y2031D01*
X1539Y2022D01*
Y1914D01*
X1482Y1858D01*
X1479Y1850D01*
X1482Y1842D01*
X1490Y1839D01*
X1498Y1842D01*
X1558Y1902D01*
X1558Y1902D01*
X1561Y1910D01*
X1561Y1910D01*
Y2026D01*
X1558Y2034D01*
X1558Y2034D01*
X1504Y2088D01*
X1496Y2091D01*
D02*
G37*
G36*
X1404Y1883D02*
X1376D01*
X1357Y1864D01*
Y1836D01*
X1376Y1817D01*
X1404D01*
X1423Y1836D01*
Y1864D01*
X1404Y1883D01*
D02*
G37*
G36*
X1155Y1842D02*
X1145D01*
X1138Y1835D01*
Y1833D01*
X1116Y1811D01*
X1109D01*
X1109Y1811D01*
X1103Y1813D01*
X1070D01*
X1065Y1811D01*
X1062Y1806D01*
Y1794D01*
X1064Y1791D01*
X1064Y1787D01*
X1064Y1784D01*
X1062Y1780D01*
Y1769D01*
X1064Y1765D01*
X1064Y1762D01*
X1064Y1758D01*
X1062Y1755D01*
Y1748D01*
X646Y1332D01*
X644Y1334D01*
X616D01*
X596Y1314D01*
Y1286D01*
X616Y1266D01*
X644D01*
X646Y1268D01*
X772Y1142D01*
X772Y1142D01*
X780Y1139D01*
X1163D01*
X1165Y1138D01*
X1175D01*
X1183Y1145D01*
Y1155D01*
X1175Y1163D01*
X1165D01*
X1163Y1161D01*
X784D01*
X662Y1284D01*
X664Y1286D01*
Y1314D01*
X662Y1316D01*
X1081Y1735D01*
X1081Y1735D01*
X1081Y1735D01*
X1103D01*
X1109Y1738D01*
X1111Y1743D01*
Y1755D01*
X1115Y1757D01*
X1117Y1757D01*
X1139Y1736D01*
Y1697D01*
X1138Y1695D01*
Y1685D01*
X1145Y1678D01*
X1155D01*
X1163Y1685D01*
Y1695D01*
X1161Y1697D01*
Y1740D01*
X1161Y1740D01*
X1158Y1748D01*
X1158Y1748D01*
X1126Y1779D01*
X1118Y1782D01*
X1118Y1782D01*
X1114D01*
X1113Y1784D01*
X1116Y1789D01*
X1120D01*
X1120Y1789D01*
X1128Y1792D01*
X1153Y1817D01*
X1155D01*
X1163Y1825D01*
Y1835D01*
X1155Y1842D01*
D02*
G37*
G36*
X1054Y1983D02*
X1026D01*
X1007Y1964D01*
Y1936D01*
X1026Y1917D01*
X1029D01*
Y1834D01*
X1009Y1813D01*
X983D01*
X978Y1811D01*
X976Y1806D01*
Y1794D01*
X978Y1789D01*
X983Y1787D01*
X1017D01*
X1022Y1789D01*
X1024Y1794D01*
Y1798D01*
X1048Y1822D01*
X1048Y1822D01*
X1051Y1829D01*
Y1917D01*
X1054D01*
X1073Y1936D01*
Y1964D01*
X1054Y1983D01*
D02*
G37*
G36*
X2687Y1674D02*
X2630D01*
X2589Y1634D01*
Y1576D01*
X2630Y1535D01*
X2687D01*
X2728Y1576D01*
Y1634D01*
X2687Y1674D01*
D02*
G37*
G36*
X557D02*
X499D01*
X459Y1634D01*
Y1576D01*
X499Y1535D01*
X557D01*
X597Y1576D01*
Y1634D01*
X557Y1674D01*
D02*
G37*
G36*
X1255Y1523D02*
X1245D01*
X1243Y1521D01*
X940D01*
X932Y1518D01*
X932Y1518D01*
X746Y1332D01*
X744Y1334D01*
X716D01*
X696Y1314D01*
Y1286D01*
X716Y1266D01*
X744D01*
X764Y1286D01*
Y1314D01*
X762Y1316D01*
X944Y1499D01*
X1243D01*
X1245Y1497D01*
X1255D01*
X1263Y1505D01*
Y1515D01*
X1255Y1523D01*
D02*
G37*
G36*
X1305Y1472D02*
X1295D01*
X1293Y1471D01*
X990D01*
X990Y1471D01*
X982Y1468D01*
X982Y1468D01*
X846Y1332D01*
X844Y1334D01*
X816D01*
X796Y1314D01*
Y1286D01*
X816Y1266D01*
X844D01*
X864Y1286D01*
Y1314D01*
X862Y1316D01*
X994Y1449D01*
X1293D01*
X1295Y1447D01*
X1305D01*
X1312Y1455D01*
Y1465D01*
X1305Y1472D01*
D02*
G37*
G36*
X1144Y1334D02*
X1116D01*
X1096Y1314D01*
Y1286D01*
X1116Y1266D01*
X1144D01*
X1164Y1286D01*
Y1314D01*
X1144Y1334D01*
D02*
G37*
G36*
X1044D02*
X1016D01*
X996Y1314D01*
Y1286D01*
X1016Y1266D01*
X1044D01*
X1064Y1286D01*
Y1314D01*
X1044Y1334D01*
D02*
G37*
G36*
X3124D02*
X3096D01*
X3076Y1314D01*
Y1286D01*
X3096Y1266D01*
X3124D01*
X3144Y1286D01*
Y1314D01*
X3124Y1334D01*
D02*
G37*
G36*
X2414Y1335D02*
X2386D01*
X2365Y1314D01*
Y1286D01*
X2386Y1265D01*
X2414D01*
X2435Y1286D01*
Y1314D01*
X2414Y1335D01*
D02*
G37*
G36*
X2314D02*
X2286D01*
X2265Y1314D01*
Y1286D01*
X2286Y1265D01*
X2314D01*
X2335Y1286D01*
Y1314D01*
X2314Y1335D01*
D02*
G37*
G36*
X2014D02*
X1986D01*
X1965Y1314D01*
Y1286D01*
X1986Y1265D01*
X2014D01*
X2035Y1286D01*
Y1314D01*
X2014Y1335D01*
D02*
G37*
G36*
X1914D02*
X1886D01*
X1865Y1314D01*
Y1286D01*
X1886Y1265D01*
X1914D01*
X1935Y1286D01*
Y1314D01*
X1914Y1335D01*
D02*
G37*
G36*
X3124Y1234D02*
X3096D01*
X3076Y1214D01*
Y1186D01*
X3096Y1166D01*
X3124D01*
X3144Y1186D01*
Y1214D01*
X3124Y1234D01*
D02*
G37*
G36*
X2514Y1235D02*
X2486D01*
X2465Y1214D01*
Y1186D01*
X2486Y1165D01*
X2514D01*
X2535Y1186D01*
Y1214D01*
X2514Y1235D01*
D02*
G37*
G36*
X2414D02*
X2386D01*
X2365Y1214D01*
Y1186D01*
X2386Y1165D01*
X2414D01*
X2435Y1186D01*
Y1214D01*
X2414Y1235D01*
D02*
G37*
G36*
X2314D02*
X2286D01*
X2265Y1214D01*
Y1186D01*
X2286Y1165D01*
X2314D01*
X2335Y1186D01*
Y1214D01*
X2314Y1235D01*
D02*
G37*
G36*
X2214D02*
X2186D01*
X2165Y1214D01*
Y1186D01*
X2186Y1165D01*
X2214D01*
X2235Y1186D01*
Y1214D01*
X2214Y1235D01*
D02*
G37*
G36*
X2114D02*
X2086D01*
X2065Y1214D01*
Y1186D01*
X2086Y1165D01*
X2114D01*
X2135Y1186D01*
Y1214D01*
X2114Y1235D01*
D02*
G37*
G36*
X1714D02*
X1686D01*
X1665Y1214D01*
Y1186D01*
X1686Y1165D01*
X1714D01*
X1735Y1186D01*
Y1214D01*
X1714Y1235D01*
D02*
G37*
G36*
X1616Y1237D02*
X1584D01*
X1569Y1231D01*
X1563Y1216D01*
Y1184D01*
X1569Y1169D01*
X1584Y1163D01*
X1616D01*
X1631Y1169D01*
X1637Y1184D01*
Y1216D01*
X1631Y1231D01*
X1616Y1237D01*
D02*
G37*
G36*
X3124Y1134D02*
X3096D01*
X3076Y1114D01*
Y1111D01*
X2310D01*
X2302Y1108D01*
X2302Y1108D01*
X2172Y978D01*
X2170D01*
X2162Y970D01*
Y960D01*
X2170Y952D01*
X2180D01*
X2188Y960D01*
Y962D01*
X2314Y1089D01*
X3076D01*
Y1086D01*
X3096Y1066D01*
X3124D01*
X3144Y1086D01*
Y1114D01*
X3124Y1134D01*
D02*
G37*
G36*
Y1034D02*
X3096D01*
X3076Y1014D01*
Y1011D01*
X2280D01*
X2280Y1011D01*
X2272Y1008D01*
X2272Y1008D01*
X2197Y933D01*
X2195D01*
X2188Y925D01*
Y915D01*
X2195Y908D01*
X2205D01*
X2213Y915D01*
Y917D01*
X2284Y989D01*
X3076D01*
Y986D01*
X3096Y966D01*
X3124D01*
X3144Y986D01*
Y1014D01*
X3124Y1034D01*
D02*
G37*
G36*
X2014Y1235D02*
X1986D01*
X1965Y1214D01*
Y1186D01*
X1986Y1165D01*
X1989Y1150D01*
X1993Y1142D01*
X2122Y1012D01*
Y1010D01*
X2130Y1003D01*
X2140D01*
X2148Y1010D01*
Y1020D01*
X2140Y1028D01*
X2138D01*
X2019Y1147D01*
X2014Y1165D01*
X2035Y1186D01*
Y1214D01*
X2014Y1235D01*
D02*
G37*
G36*
X3124Y934D02*
X3096D01*
X3076Y914D01*
Y886D01*
X3060Y876D01*
X2217D01*
X2215Y877D01*
X2205D01*
X2197Y870D01*
Y860D01*
X2205Y853D01*
X2215D01*
X2217Y854D01*
X3075D01*
X3075Y854D01*
X3083Y857D01*
X3094Y868D01*
X3096Y866D01*
X3124D01*
X3144Y886D01*
Y914D01*
X3124Y934D01*
D02*
G37*
G36*
Y634D02*
X3096D01*
X3076Y614D01*
Y611D01*
X2730D01*
X2730Y611D01*
X2722Y608D01*
X2722Y608D01*
X2481Y366D01*
X2262D01*
X2260Y368D01*
X2250D01*
X2243Y360D01*
Y350D01*
X2250Y343D01*
X2260D01*
X2262Y344D01*
X2485D01*
X2485Y344D01*
X2493Y347D01*
X2734Y589D01*
X3076D01*
Y586D01*
X3096Y566D01*
X3124D01*
X3144Y586D01*
Y614D01*
X3124Y634D01*
D02*
G37*
G36*
Y534D02*
X3096D01*
X3076Y514D01*
Y486D01*
X3096Y466D01*
X3124D01*
X3144Y486D01*
Y514D01*
X3124Y534D01*
D02*
G37*
G36*
X2960Y562D02*
X2950D01*
X2943Y555D01*
Y545D01*
X2944Y543D01*
Y450D01*
X2944Y450D01*
X2947Y442D01*
X2997Y392D01*
X2997Y392D01*
X3005Y389D01*
X3005Y389D01*
X3075D01*
Y384D01*
X3080Y370D01*
X3094Y364D01*
X3126D01*
X3140Y370D01*
X3145Y384D01*
Y416D01*
X3140Y430D01*
X3126Y435D01*
X3094D01*
X3080Y430D01*
X3075Y416D01*
Y411D01*
X3009D01*
X2966Y454D01*
Y543D01*
X2967Y545D01*
Y555D01*
X2960Y562D01*
D02*
G37*
G36*
X2516Y248D02*
X2420D01*
Y152D01*
X2516D01*
Y248D01*
D02*
G37*
G36*
X2332D02*
X2292D01*
X2264Y220D01*
Y180D01*
X2292Y152D01*
X2332D01*
X2360Y180D01*
Y220D01*
X2332Y248D01*
D02*
G37*
%LPD*%
D16*
X2160Y524D02*
X2163Y527D01*
Y585D01*
X2245Y593D02*
X2250Y588D01*
X2250D01*
X2245Y593D02*
Y599D01*
X1240Y530D02*
X2000D01*
X1232D02*
X1240D01*
X1220D02*
X1232D01*
X1086D02*
X1220D01*
X1230Y540D02*
Y1300D01*
Y532D02*
Y540D01*
X1760Y640D02*
Y670D01*
X1771D01*
X1760Y610D02*
Y640D01*
X1710D02*
X1760D01*
X679Y681D02*
X680Y680D01*
X561Y810D02*
X567D01*
X573D01*
X666Y681D02*
X679D01*
X1800Y1300D02*
X1970Y1470D01*
X2270Y1770D01*
X1930Y1510D02*
X1970Y1470D01*
X1962Y1463D02*
Y1479D01*
X1976D01*
X2270Y1770D02*
Y2174D01*
X660Y120D02*
X810D01*
X870Y180D02*
Y270D01*
X810Y120D02*
X870Y180D01*
X615Y700D02*
X622D01*
X1220Y530D02*
X1230Y540D01*
X1240Y530D01*
X1245D01*
X1230Y532D02*
X1232Y530D01*
X1490Y1850D02*
X1550Y1910D01*
Y2026D01*
X1476Y2080D02*
X1496D01*
X1550Y2026D01*
X1397Y2020D02*
X1398Y2019D01*
X1277Y2020D02*
X1397D01*
X1271Y2001D02*
Y2014D01*
X1277Y2020D01*
X1270Y2000D02*
X1271Y2001D01*
X1474Y1998D02*
Y2006D01*
X1140Y1950D02*
X1425D01*
X1474Y1998D01*
Y2006D02*
X1486Y2019D01*
X1494D01*
X1818Y610D02*
X1937D01*
X1817Y610D02*
X1818Y610D01*
X680Y700D02*
X684D01*
X3005Y400D02*
X3110D01*
X2955Y450D02*
Y550D01*
Y450D02*
X3005Y400D01*
X2730Y600D02*
X3110D01*
X2485Y355D02*
X2730Y600D01*
X2255Y355D02*
X2485D01*
X1878Y713D02*
X1937D01*
X1875Y710D02*
X1878Y713D01*
X2055Y640D02*
Y710D01*
X2027Y738D02*
X2055Y710D01*
X1875Y560D02*
X1900Y585D01*
X1937D01*
Y687D02*
X1998D01*
X2000Y685D01*
X2280Y1000D02*
X3110D01*
X2200Y920D02*
X2280Y1000D01*
X2310Y1100D02*
X3110D01*
X2175Y965D02*
X2310Y1100D01*
X3075Y865D02*
X3110Y900D01*
X2210Y865D02*
X3075D01*
X2000Y1200D02*
X2000Y1200D01*
Y1150D02*
Y1200D01*
Y1150D02*
X2135Y1015D01*
X1835Y930D02*
X1875Y970D01*
X1835Y805D02*
Y930D01*
X1870Y905D02*
X1885Y920D01*
X1870Y820D02*
Y905D01*
X1885Y920D02*
X1920D01*
X1900Y790D02*
X1937D01*
X1870Y820D02*
X1900Y790D01*
X1937Y815D02*
Y872D01*
X1945Y880D01*
X1937Y738D02*
X2027D01*
X1937Y738D02*
X1937Y738D01*
X1802Y738D02*
X1937D01*
X1876Y764D02*
X1937D01*
X1835Y805D02*
X1876Y764D01*
X2080Y670D02*
X2114Y636D01*
X1800Y1195D02*
X2080Y915D01*
Y670D02*
Y915D01*
X2115Y768D02*
Y930D01*
X1900Y1145D02*
X2115Y930D01*
Y768D02*
X2144Y738D01*
X2163Y790D02*
X3020D01*
X3110Y700D01*
X2316Y764D02*
X2350Y730D01*
X2163Y764D02*
X2316D01*
X3081Y815D02*
X3096Y800D01*
X3110D01*
X2163Y815D02*
X3081D01*
X2164Y661D02*
X2299D01*
X2163Y662D02*
X2164Y661D01*
X2299D02*
X2300Y660D01*
X2290Y705D02*
Y725D01*
X2163Y687D02*
X2272D01*
X2290Y705D01*
X2218Y713D02*
X2235Y730D01*
X2163Y713D02*
X2218D01*
X2114Y636D02*
X2163D01*
X1800Y1195D02*
Y1200D01*
X1900Y1145D02*
Y1200D01*
X2144Y738D02*
X2163D01*
X1073Y1743D02*
Y1746D01*
X630Y1300D02*
X1073Y1743D01*
Y1746D02*
X1076Y1749D01*
X1087D01*
X1817Y570D02*
Y610D01*
X1810Y560D02*
Y563D01*
X1817Y570D01*
X2350Y560D02*
Y730D01*
X2156Y366D02*
X2350Y560D01*
X2156Y200D02*
Y366D01*
X1300Y1120D02*
Y1150D01*
Y1120D02*
X1520Y900D01*
Y900D02*
Y900D01*
Y900D02*
X1560Y860D01*
X1330Y1210D02*
Y1300D01*
Y1210D02*
X1802Y738D01*
X2233Y610D02*
X2245Y599D01*
X2163Y610D02*
X2233D01*
X1630Y1460D02*
X1700D01*
X990D02*
X1300D01*
X830Y1300D02*
X990Y1460D01*
X1390Y1380D02*
Y1570D01*
X1220Y1740D02*
X1390Y1570D01*
X940Y1510D02*
X1250D01*
X730Y1300D02*
X940Y1510D01*
X2105Y1865D02*
Y1963D01*
X1700Y1460D02*
X2105Y1865D01*
X1700Y1300D02*
Y1460D01*
X780Y1150D02*
X1170D01*
X630Y1300D02*
X780Y1150D01*
X2310Y1490D02*
X2500Y1300D01*
X2080Y1490D02*
X2310D01*
X1120Y2170D02*
X1340D01*
X1085Y2205D02*
X1120Y2170D01*
X1085Y2205D02*
Y2293D01*
X1087Y1800D02*
X1120D01*
X1150Y1830D01*
X1000Y1800D02*
X1011D01*
X1040Y1829D02*
Y1950D01*
X1011Y1800D02*
X1040Y1829D01*
X1150Y1690D02*
Y1740D01*
X1089Y1772D02*
X1118D01*
X1150Y1740D01*
X1087Y1774D02*
X1089Y1772D01*
X1390Y1380D02*
X1520D01*
X1000D02*
X1390D01*
X1995Y2277D02*
Y2343D01*
X1990Y2270D02*
Y2273D01*
X1995Y2277D01*
X1175Y2235D02*
X1190Y2220D01*
X1175Y2235D02*
Y2293D01*
X2015Y1905D02*
Y1963D01*
Y1905D02*
X2020Y1900D01*
X1050Y730D02*
X1180D01*
X2102Y2343D02*
X2270Y2174D01*
X2085Y2343D02*
X2102D01*
X1520Y1380D02*
X1600Y1300D01*
X930D02*
Y1310D01*
X1000Y1380D01*
X1817Y665D02*
X1846Y636D01*
X1817Y665D02*
Y670D01*
X1846Y636D02*
X1937D01*
X580Y680D02*
X622D01*
X560Y660D02*
X580Y680D01*
X1120Y470D02*
Y500D01*
X2020D01*
X1100D02*
X1120D01*
X600Y180D02*
X660Y120D01*
X600Y180D02*
Y200D01*
X870Y270D02*
X1100Y500D01*
X756Y200D02*
X1086Y530D01*
X2000D02*
X2080Y610D01*
X2020Y500D02*
X2105Y585D01*
X2163D01*
X2080Y610D02*
X2163D01*
D17*
X760Y787D02*
X820D01*
X1262Y64D02*
X1277Y80D01*
X468Y20D02*
X1243D01*
X1262Y39D02*
Y64D01*
X1243Y20D02*
X1262Y39D01*
X288Y200D02*
X468Y20D01*
X780Y490D02*
Y563D01*
X700Y410D02*
X780Y490D01*
X498Y410D02*
X700D01*
X288Y200D02*
X498Y410D01*
D18*
X480Y760D02*
X507Y787D01*
X650Y697D02*
X666Y681D01*
X507Y787D02*
X538D01*
X561Y810D01*
X650Y697D02*
Y733D01*
X573Y810D02*
X650Y733D01*
X758Y787D02*
X760D01*
X750Y795D02*
X758Y787D01*
X496Y713D02*
X603D01*
X480Y729D02*
X496Y713D01*
X603D02*
X615Y700D01*
X288Y748D02*
X430Y890D01*
X288Y200D02*
Y748D01*
X820Y730D02*
X880D01*
X760D02*
X820D01*
X1373Y170D02*
X1629D01*
X450Y590D02*
X501D01*
X420Y620D02*
X450Y590D01*
X700Y716D02*
Y725D01*
X684Y700D02*
X700Y716D01*
X684Y661D02*
X720Y625D01*
X680Y661D02*
X684D01*
X769Y573D02*
X780Y563D01*
X720Y590D02*
X737Y573D01*
X720Y590D02*
Y625D01*
X737Y573D02*
X769D01*
X677Y517D02*
Y590D01*
X675Y515D02*
X677Y517D01*
X1243Y243D02*
X1295Y295D01*
X1243Y170D02*
Y243D01*
X1233Y160D02*
X1238D01*
X1243Y165D01*
X1203Y80D02*
Y130D01*
X1233Y160D01*
X1243Y165D02*
Y170D01*
X1875Y665D02*
X1876D01*
X1880Y662D02*
X1937D01*
X1876Y665D02*
X1880Y662D01*
X1295Y295D02*
X1330Y260D01*
X1370D01*
X1970Y2100D02*
X1994Y2076D01*
Y2042D02*
Y2076D01*
X1060Y2420D02*
X1085Y2395D01*
Y2367D02*
Y2395D01*
X1308Y2367D02*
X1315Y2360D01*
X1175Y2367D02*
X1308D01*
X1175Y2349D02*
Y2367D01*
Y2330D02*
Y2349D01*
X1174Y2350D02*
X1175Y2349D01*
X1140Y2350D02*
X1174D01*
X1085Y2330D02*
X1120D01*
X1140Y2350D01*
X1974Y2422D02*
Y2456D01*
X1960Y2470D02*
X1974Y2456D01*
X1978Y2417D02*
X1995D01*
X1974Y2422D02*
X1978Y2417D01*
X1865Y2360D02*
X1885Y2380D01*
X1995D01*
X2085Y2399D02*
Y2417D01*
Y2380D02*
Y2399D01*
X1995Y2380D02*
X2040D01*
X2059Y2399D02*
X2085D01*
X2040Y2380D02*
X2059Y2399D01*
X1998Y2037D02*
X2015D01*
X1994Y2042D02*
X1998Y2037D01*
X2105Y2019D02*
Y2037D01*
Y2000D02*
Y2019D01*
X2015Y2000D02*
X2060D01*
X2079Y2019D02*
X2105D01*
X2060Y2000D02*
X2079Y2019D01*
X1863Y2000D02*
X2015D01*
X430Y890D02*
Y1300D01*
X1520Y318D02*
Y380D01*
X1370Y170D02*
X1373D01*
X1520Y318D01*
X1277Y80D02*
X1370D01*
X1300Y170D02*
X1300Y170D01*
X1370D01*
D19*
X1995Y2343D02*
D03*
Y2380D02*
D03*
Y2417D02*
D03*
X2085D02*
D03*
Y2380D02*
D03*
Y2343D02*
D03*
X2015Y1963D02*
D03*
Y2000D02*
D03*
Y2037D02*
D03*
X2105D02*
D03*
Y2000D02*
D03*
Y1963D02*
D03*
X1085Y2293D02*
D03*
Y2330D02*
D03*
Y2367D02*
D03*
X1175D02*
D03*
Y2330D02*
D03*
Y2293D02*
D03*
D20*
X1680Y2360D02*
D03*
X1865D02*
D03*
X1677Y2000D02*
D03*
X1863D02*
D03*
X1500Y2360D02*
D03*
X1315D02*
D03*
D21*
X1277Y80D02*
D03*
X1203D02*
D03*
D22*
X780Y563D02*
D03*
Y637D02*
D03*
D23*
X1243Y170D02*
D03*
X1300D02*
D03*
D24*
X760Y730D02*
D03*
Y787D02*
D03*
X820Y730D02*
D03*
Y787D02*
D03*
D25*
X1771Y670D02*
D03*
X1806D02*
D03*
Y610D02*
D03*
X1771D02*
D03*
X512Y590D02*
D03*
X548D02*
D03*
X666D02*
D03*
X631D02*
D03*
D26*
X2250Y588D02*
D03*
Y552D02*
D03*
X2160Y482D02*
D03*
Y518D02*
D03*
D27*
X1476Y2080D02*
D03*
D28*
X1380D02*
D03*
D29*
X1398Y2019D02*
D03*
D30*
X1494D02*
D03*
D31*
X622Y661D02*
D03*
Y680D02*
D03*
Y700D02*
D03*
X680D02*
D03*
Y680D02*
D03*
Y661D02*
D03*
D32*
X480Y760D02*
D03*
Y729D02*
D03*
D33*
X1937Y815D02*
D03*
Y790D02*
D03*
Y764D02*
D03*
Y738D02*
D03*
Y713D02*
D03*
Y687D02*
D03*
Y662D02*
D03*
Y636D02*
D03*
Y610D02*
D03*
Y585D02*
D03*
X2163Y815D02*
D03*
Y790D02*
D03*
Y764D02*
D03*
Y738D02*
D03*
Y713D02*
D03*
Y687D02*
D03*
Y662D02*
D03*
Y636D02*
D03*
Y610D02*
D03*
Y585D02*
D03*
D34*
X1000Y1749D02*
D03*
Y1800D02*
D03*
X1087D02*
D03*
Y1774D02*
D03*
Y1749D02*
D03*
D35*
X1629Y170D02*
D03*
D36*
X1370Y80D02*
D03*
Y170D02*
D03*
D37*
Y260D02*
D03*
D38*
X673Y810D02*
D03*
X567D02*
D03*
D64*
X702Y787D02*
X758D01*
X620Y590D02*
Y650D01*
X750Y795D02*
Y970D01*
X679Y810D02*
X702Y787D01*
X673Y810D02*
X679D01*
D65*
X863Y637D02*
X910Y590D01*
X780Y637D02*
X863D01*
X559Y590D02*
X620D01*
D66*
X1390Y1850D02*
D03*
X1040Y1950D02*
D03*
X1520Y380D02*
D03*
X750Y970D02*
D03*
D67*
X1490Y1850D02*
D03*
X1140Y1950D02*
D03*
X1620Y380D02*
D03*
X850Y970D02*
D03*
D68*
X2658Y1605D02*
D03*
X1593Y3180D02*
D03*
X528Y1605D02*
D03*
D69*
X2300Y1300D02*
D03*
Y1200D02*
D03*
X2100Y1300D02*
D03*
Y1200D02*
D03*
X2000Y1300D02*
D03*
Y1200D02*
D03*
X1700Y1300D02*
D03*
Y1200D02*
D03*
X1600Y1300D02*
D03*
X1800Y1200D02*
D03*
Y1300D02*
D03*
X1900Y1200D02*
D03*
Y1300D02*
D03*
X2200Y1200D02*
D03*
Y1300D02*
D03*
X2400Y1200D02*
D03*
X2500D02*
D03*
X2400Y1300D02*
D03*
X2500D02*
D03*
D70*
X1600Y1200D02*
D03*
D71*
X630Y1300D02*
D03*
X730D02*
D03*
X930D02*
D03*
X1130D02*
D03*
X1230D02*
D03*
X1030D02*
D03*
X830D02*
D03*
X530D02*
D03*
X430D02*
D03*
X3110Y1100D02*
D03*
Y1000D02*
D03*
Y800D02*
D03*
Y600D02*
D03*
Y500D02*
D03*
Y700D02*
D03*
Y900D02*
D03*
Y1200D02*
D03*
Y1300D02*
D03*
D72*
X1330D02*
D03*
D73*
X3110Y400D02*
D03*
D74*
X2000Y200D02*
D03*
X2156D02*
D03*
X2312D02*
D03*
X600D02*
D03*
X444D02*
D03*
X288D02*
D03*
D75*
X2468D02*
D03*
X756D02*
D03*
D76*
X910Y590D02*
D03*
X880Y730D02*
D03*
X1270Y2000D02*
D03*
X420Y620D02*
D03*
X700Y725D02*
D03*
X675Y515D02*
D03*
X2955Y550D02*
D03*
X1875Y710D02*
D03*
Y665D02*
D03*
X2255Y355D02*
D03*
X2055Y640D02*
D03*
X1670Y965D02*
D03*
X1875Y560D02*
D03*
X2000Y685D02*
D03*
X2200Y920D02*
D03*
X2210Y865D02*
D03*
X2175Y965D02*
D03*
X2135Y1015D02*
D03*
X1875Y970D02*
D03*
X1920Y920D02*
D03*
X1945Y880D02*
D03*
X2300Y660D02*
D03*
X2290Y725D02*
D03*
X2235Y730D02*
D03*
X1295Y295D02*
D03*
X1810Y560D02*
D03*
Y420D02*
D03*
X1560Y860D02*
D03*
X1300Y1460D02*
D03*
X1630D02*
D03*
X1250Y1510D02*
D03*
X1930D02*
D03*
X1170Y1150D02*
D03*
X1300D02*
D03*
X2080Y1490D02*
D03*
X1340Y2170D02*
D03*
X1150Y1830D02*
D03*
Y1690D02*
D03*
X1220Y1740D02*
D03*
X1990Y2270D02*
D03*
X1970Y2100D02*
D03*
X1190Y2220D02*
D03*
X2020Y1900D02*
D03*
X1180Y730D02*
D03*
X1050D02*
D03*
X1060Y2420D02*
D03*
X1960Y2470D02*
D03*
X1710Y640D02*
D03*
X560Y660D02*
D03*
X1120Y470D02*
D03*
M02*
