G04*
G04 #@! TF.GenerationSoftware,Altium Limited,Altium Designer,21.6.4 (81)*
G04*
G04 Layer_Physical_Order=1*
G04 Layer_Color=255*
%FSLAX23Y23*%
%MOIN*%
G70*
G04*
G04 #@! TF.SameCoordinates,5C7EE660-6927-4EDB-96E5-1C855801FDE5*
G04*
G04*
G04 #@! TF.FilePolarity,Positive*
G04*
G01*
G75*
%ADD16R,0.026X0.035*%
%ADD17R,0.051X0.019*%
%ADD18R,0.031X0.037*%
%ADD19R,0.039X0.039*%
%ADD20R,0.087X0.047*%
%ADD21R,0.059X0.051*%
%ADD22R,0.094X0.031*%
%ADD23R,0.051X0.035*%
%ADD24R,0.024X0.059*%
%ADD25R,0.094X0.019*%
%ADD26R,0.039X0.094*%
%ADD27R,0.051X0.059*%
%ADD28R,0.035X0.026*%
%ADD29R,0.019X0.051*%
%ADD30R,0.059X0.051*%
G04:AMPARAMS|DCode=31|XSize=19mil|YSize=24mil|CornerRadius=2mil|HoleSize=0mil|Usage=FLASHONLY|Rotation=0.000|XOffset=0mil|YOffset=0mil|HoleType=Round|Shape=RoundedRectangle|*
%AMROUNDEDRECTD31*
21,1,0.019,0.020,0,0,0.0*
21,1,0.015,0.024,0,0,0.0*
1,1,0.004,0.008,-0.010*
1,1,0.004,-0.008,-0.010*
1,1,0.004,-0.008,0.010*
1,1,0.004,0.008,0.010*
%
%ADD31ROUNDEDRECTD31*%
G04:AMPARAMS|DCode=32|XSize=19mil|YSize=24mil|CornerRadius=2mil|HoleSize=0mil|Usage=FLASHONLY|Rotation=270.000|XOffset=0mil|YOffset=0mil|HoleType=Round|Shape=RoundedRectangle|*
%AMROUNDEDRECTD32*
21,1,0.019,0.020,0,0,270.0*
21,1,0.015,0.024,0,0,270.0*
1,1,0.004,-0.010,-0.008*
1,1,0.004,-0.010,0.008*
1,1,0.004,0.010,0.008*
1,1,0.004,0.010,-0.008*
%
%ADD32ROUNDEDRECTD32*%
G04:AMPARAMS|DCode=33|XSize=26mil|YSize=12mil|CornerRadius=1mil|HoleSize=0mil|Usage=FLASHONLY|Rotation=0.000|XOffset=0mil|YOffset=0mil|HoleType=Round|Shape=RoundedRectangle|*
%AMROUNDEDRECTD33*
21,1,0.026,0.010,0,0,0.0*
21,1,0.024,0.012,0,0,0.0*
1,1,0.002,0.012,-0.005*
1,1,0.002,-0.012,-0.005*
1,1,0.002,-0.012,0.005*
1,1,0.002,0.012,0.005*
%
%ADD33ROUNDEDRECTD33*%
%ADD34R,0.037X0.031*%
%ADD35R,0.059X0.047*%
%ADD36R,0.034X0.040*%
G04:AMPARAMS|DCode=37|XSize=40mil|YSize=34mil|CornerRadius=17mil|HoleSize=0mil|Usage=FLASHONLY|Rotation=90.000|XOffset=0mil|YOffset=0mil|HoleType=Round|Shape=RoundedRectangle|*
%AMROUNDEDRECTD37*
21,1,0.040,0.000,0,0,90.0*
21,1,0.005,0.034,0,0,90.0*
1,1,0.034,0.000,0.003*
1,1,0.034,0.000,-0.003*
1,1,0.034,0.000,-0.003*
1,1,0.034,0.000,0.003*
%
%ADD37ROUNDEDRECTD37*%
G04:AMPARAMS|DCode=38|XSize=40mil|YSize=125mil|CornerRadius=17mil|HoleSize=0mil|Usage=FLASHONLY|Rotation=90.000|XOffset=0mil|YOffset=0mil|HoleType=Round|Shape=RoundedRectangle|*
%AMROUNDEDRECTD38*
21,1,0.040,0.091,0,0,90.0*
21,1,0.005,0.125,0,0,90.0*
1,1,0.034,0.045,0.003*
1,1,0.034,0.045,-0.003*
1,1,0.034,-0.045,-0.003*
1,1,0.034,-0.045,0.003*
%
%ADD38ROUNDEDRECTD38*%
%ADD39R,0.020X0.020*%
G04:AMPARAMS|DCode=40|XSize=37mil|YSize=16mil|CornerRadius=2mil|HoleSize=0mil|Usage=FLASHONLY|Rotation=270.000|XOffset=0mil|YOffset=0mil|HoleType=Round|Shape=RoundedRectangle|*
%AMROUNDEDRECTD40*
21,1,0.037,0.012,0,0,270.0*
21,1,0.033,0.016,0,0,270.0*
1,1,0.004,-0.006,-0.017*
1,1,0.004,-0.006,0.017*
1,1,0.004,0.006,0.017*
1,1,0.004,0.006,-0.017*
%
%ADD40ROUNDEDRECTD40*%
%ADD41O,0.053X0.016*%
%ADD67C,0.010*%
%ADD68C,0.015*%
%ADD69C,0.020*%
%ADD70C,0.030*%
%ADD71C,0.118*%
%ADD72C,0.063*%
G04:AMPARAMS|DCode=73|XSize=63mil|YSize=63mil|CornerRadius=16mil|HoleSize=0mil|Usage=FLASHONLY|Rotation=56.000|XOffset=0mil|YOffset=0mil|HoleType=Round|Shape=RoundedRectangle|*
%AMROUNDEDRECTD73*
21,1,0.063,0.031,0,0,56.0*
21,1,0.031,0.063,0,0,56.0*
1,1,0.031,0.022,0.004*
1,1,0.031,0.004,-0.022*
1,1,0.031,-0.022,-0.004*
1,1,0.031,-0.004,0.022*
%
%ADD73ROUNDEDRECTD73*%
G04:AMPARAMS|DCode=74|XSize=63mil|YSize=63mil|CornerRadius=16mil|HoleSize=0mil|Usage=FLASHONLY|Rotation=0.000|XOffset=0mil|YOffset=0mil|HoleType=Round|Shape=RoundedRectangle|*
%AMROUNDEDRECTD74*
21,1,0.063,0.031,0,0,0.0*
21,1,0.031,0.063,0,0,0.0*
1,1,0.031,0.016,-0.016*
1,1,0.031,-0.016,-0.016*
1,1,0.031,-0.016,0.016*
1,1,0.031,0.016,0.016*
%
%ADD74ROUNDEDRECTD74*%
%ADD75C,0.020*%
G36*
X1491Y-737D02*
X1484Y-750D01*
X-1484D01*
X-1491Y-737D01*
X-7Y1489D01*
X7D01*
X1491Y-737D01*
D02*
G37*
%LPC*%
G36*
X29Y1067D02*
X-29D01*
X-70Y1026D01*
Y968D01*
X-29Y927D01*
X29D01*
X70Y968D01*
Y1026D01*
X29Y1067D01*
D02*
G37*
G36*
X186Y782D02*
X148D01*
Y769D01*
X76D01*
Y781D01*
X44D01*
Y739D01*
X76D01*
Y751D01*
X148D01*
Y738D01*
X186D01*
Y782D01*
D02*
G37*
G36*
X216Y769D02*
X210Y766D01*
X210D01*
X208Y762D01*
D01*
X207Y760D01*
X207Y760D01*
X207Y758D01*
Y725D01*
X207Y698D01*
X207Y690D01*
X207Y690D01*
X208Y688D01*
D01*
X210Y684D01*
X210D01*
X216Y681D01*
X222Y684D01*
X222D01*
X224Y688D01*
D01*
X225Y690D01*
X225Y690D01*
X225Y692D01*
Y716D01*
X259D01*
X262Y716D01*
X264Y714D01*
X264D01*
X270Y711D01*
X270Y711D01*
X273Y712D01*
Y712D01*
X276Y714D01*
X278Y717D01*
X278D01*
X279Y720D01*
X276Y726D01*
Y726D01*
X271Y731D01*
X271Y731D01*
X270Y731D01*
X265Y734D01*
X265Y734D01*
X264Y734D01*
X225D01*
X225Y752D01*
X225Y760D01*
X225Y760D01*
X224Y762D01*
D01*
X222Y766D01*
X222D01*
X216Y769D01*
D02*
G37*
G36*
X-135Y709D02*
X-135Y709D01*
X-137Y708D01*
D01*
X-141Y706D01*
Y706D01*
X-144Y700D01*
X-144Y700D01*
X-141Y694D01*
Y694D01*
X-137Y692D01*
D01*
X-137Y692D01*
X-125Y686D01*
X-101Y662D01*
X-98Y658D01*
X-98Y658D01*
X-91Y656D01*
X-91Y656D01*
X-89Y656D01*
X-89Y656D01*
X-86Y657D01*
Y657D01*
X-82Y658D01*
X-80Y665D01*
X-82Y671D01*
X-87Y673D01*
X-121Y706D01*
X-127Y709D01*
X-135Y709D01*
X-135Y709D01*
D02*
G37*
G36*
X186Y712D02*
X148D01*
Y699D01*
X76D01*
Y711D01*
X44D01*
Y669D01*
X76D01*
Y681D01*
X148D01*
Y668D01*
X186D01*
Y712D01*
D02*
G37*
G36*
X19Y781D02*
X-13D01*
Y752D01*
X-46Y718D01*
X-49Y712D01*
Y696D01*
Y625D01*
X-64Y617D01*
X-67Y619D01*
Y634D01*
X-110D01*
Y597D01*
X-79D01*
X-46Y564D01*
X-26Y544D01*
X-20Y541D01*
X-20D01*
X-8Y534D01*
Y477D01*
X14D01*
X16Y477D01*
X30Y474D01*
Y446D01*
X16Y443D01*
X14Y443D01*
X-8D01*
Y403D01*
X-44D01*
X-45Y403D01*
X-55D01*
X-63Y395D01*
Y385D01*
X-55Y377D01*
X-45D01*
X-37Y385D01*
Y385D01*
X-0D01*
X1Y386D01*
X14D01*
X16Y386D01*
X30Y383D01*
Y346D01*
X-93Y223D01*
X-96Y215D01*
Y155D01*
X-135D01*
Y131D01*
X-135D01*
X-140Y118D01*
X-150D01*
Y52D01*
X-140D01*
X-135Y39D01*
X-135D01*
Y15D01*
X-35D01*
Y25D01*
X-20Y38D01*
X-20Y38D01*
X-19Y38D01*
Y0D01*
X-14Y-12D01*
Y-43D01*
X-9Y-57D01*
X16Y-82D01*
Y-85D01*
X20Y-96D01*
Y-118D01*
X30D01*
X35Y-131D01*
X35Y-133D01*
Y-155D01*
X135D01*
Y-131D01*
X135D01*
X140Y-118D01*
X150D01*
Y-79D01*
X406D01*
Y-80D01*
X463D01*
Y-55D01*
X463Y-55D01*
X466Y-41D01*
X497D01*
Y-42D01*
X503D01*
X506Y-57D01*
X501Y-59D01*
X499Y-61D01*
X496Y-69D01*
Y-103D01*
X477Y-122D01*
X474Y-130D01*
X477Y-138D01*
X485Y-141D01*
X493Y-138D01*
X515Y-116D01*
X519Y-108D01*
Y-79D01*
X525D01*
X534Y-75D01*
X537Y-67D01*
X534Y-59D01*
X528Y-57D01*
X531Y-42D01*
X554D01*
Y-20D01*
X554Y-18D01*
Y-5D01*
X558Y-1D01*
X586D01*
Y-24D01*
Y-94D01*
X589Y-100D01*
X611Y-122D01*
Y-151D01*
X642D01*
Y-109D01*
X623D01*
X608Y-95D01*
X616Y-81D01*
X642D01*
Y-39D01*
X623D01*
X608Y-25D01*
X616Y-11D01*
X642D01*
Y31D01*
X611D01*
X604Y43D01*
Y78D01*
X624Y98D01*
X649D01*
Y142D01*
X612D01*
Y111D01*
X589Y88D01*
X586Y82D01*
Y16D01*
X554D01*
Y20D01*
X497D01*
Y-3D01*
X497Y-5D01*
X494Y-19D01*
X466D01*
X463Y-5D01*
X463Y-3D01*
Y20D01*
X406D01*
Y16D01*
X386D01*
X303Y99D01*
Y105D01*
X295Y113D01*
X285D01*
X277Y105D01*
Y95D01*
X285Y87D01*
X291D01*
X376Y1D01*
X383Y-1D01*
X402D01*
X406Y-5D01*
Y-18D01*
X406Y-20D01*
Y-42D01*
X406Y-42D01*
X403Y-56D01*
X150D01*
Y-52D01*
X140D01*
X135Y-39D01*
X135D01*
Y-15D01*
X39D01*
X35Y-15D01*
X24Y-5D01*
X19Y7D01*
Y38D01*
X20Y38D01*
X20Y38D01*
X35Y25D01*
Y15D01*
X135D01*
Y39D01*
X135D01*
X140Y52D01*
X150D01*
Y118D01*
X140D01*
X135Y131D01*
X135D01*
Y155D01*
X121D01*
X114Y170D01*
X239Y296D01*
X243Y304D01*
Y325D01*
X278D01*
Y350D01*
X278Y350D01*
X281Y364D01*
X312D01*
Y363D01*
X335D01*
X338Y348D01*
X332Y346D01*
X329Y338D01*
X332Y330D01*
X340Y326D01*
X344D01*
Y275D01*
X347Y267D01*
X355Y264D01*
X363Y267D01*
X366Y275D01*
Y336D01*
X363Y344D01*
X361Y346D01*
X356Y348D01*
X359Y363D01*
X369D01*
Y385D01*
X369Y387D01*
Y400D01*
X373Y404D01*
X391D01*
Y342D01*
Y311D01*
X394Y305D01*
X426Y273D01*
Y244D01*
X457D01*
Y286D01*
X450D01*
Y314D01*
X457D01*
Y356D01*
X426D01*
Y351D01*
X409D01*
Y396D01*
X426D01*
Y384D01*
X457D01*
Y426D01*
X426D01*
Y414D01*
X409D01*
Y463D01*
X439Y493D01*
X464D01*
Y537D01*
X427D01*
Y506D01*
X394Y473D01*
X391Y467D01*
Y421D01*
X369D01*
Y425D01*
X312D01*
Y402D01*
X312Y400D01*
X309Y386D01*
X281D01*
X278Y400D01*
X278Y402D01*
Y425D01*
X238D01*
Y453D01*
X235Y459D01*
X228Y467D01*
Y475D01*
X220Y483D01*
X210D01*
X202Y475D01*
Y465D01*
X210Y457D01*
X213D01*
X220Y450D01*
Y417D01*
X221Y415D01*
Y402D01*
X221Y400D01*
Y387D01*
X221Y385D01*
Y363D01*
X221D01*
X221Y350D01*
X220Y336D01*
Y308D01*
X86Y174D01*
X83Y166D01*
Y155D01*
X35D01*
Y133D01*
X35Y131D01*
X30Y118D01*
X20D01*
Y102D01*
X15D01*
X1Y96D01*
X0Y95D01*
X-4Y99D01*
X-18Y104D01*
X-20D01*
Y118D01*
X-30D01*
X-35Y131D01*
X-35Y133D01*
Y155D01*
X-74D01*
Y210D01*
X49Y333D01*
X53Y341D01*
Y383D01*
X67Y386D01*
X67Y386D01*
X67Y386D01*
X91D01*
Y443D01*
X67D01*
X67Y443D01*
X53Y446D01*
Y477D01*
X54D01*
Y534D01*
X31D01*
X29Y534D01*
X16D01*
X12Y538D01*
Y599D01*
X19D01*
Y641D01*
X-13D01*
Y599D01*
X-5D01*
Y567D01*
X-20Y562D01*
X-31Y573D01*
Y681D01*
X-13D01*
Y669D01*
X19D01*
Y711D01*
X-8D01*
X-15Y725D01*
X-1Y739D01*
X19D01*
Y781D01*
D02*
G37*
G36*
X186Y642D02*
X148D01*
Y629D01*
X76D01*
Y641D01*
X44D01*
Y599D01*
X76D01*
Y611D01*
X148D01*
Y598D01*
X186D01*
Y642D01*
D02*
G37*
G36*
X216Y629D02*
X216Y629D01*
X213Y627D01*
Y627D01*
X210Y626D01*
X209Y623D01*
D01*
X207Y620D01*
X207Y620D01*
X210Y614D01*
Y614D01*
X218Y606D01*
Y583D01*
X221Y577D01*
X242Y555D01*
X244Y554D01*
X244D01*
X250Y551D01*
X250Y551D01*
X253Y553D01*
Y553D01*
X256Y554D01*
X257Y557D01*
D01*
X259Y560D01*
X259Y560D01*
X256Y566D01*
Y566D01*
X251Y572D01*
X235Y587D01*
Y609D01*
X233Y615D01*
X224Y625D01*
X222Y626D01*
X222D01*
X216Y629D01*
X216Y629D01*
D02*
G37*
G36*
X-208Y702D02*
X-246D01*
X-254Y698D01*
X-257Y690D01*
X-254Y682D01*
Y673D01*
X-257Y665D01*
X-256Y663D01*
X-265Y648D01*
X-311D01*
X-317Y645D01*
X-371Y591D01*
X-386Y597D01*
X-386Y627D01*
X-386Y635D01*
X-386Y635D01*
X-387Y637D01*
D01*
X-389Y641D01*
X-389D01*
X-395Y644D01*
X-401Y641D01*
X-401D01*
X-403Y637D01*
D01*
X-404Y635D01*
X-404Y635D01*
X-404Y633D01*
Y584D01*
X-411Y581D01*
X-421Y583D01*
X-423Y586D01*
X-423Y588D01*
X-424Y591D01*
X-426Y601D01*
X-424Y608D01*
X-424Y610D01*
X-423Y613D01*
X-425Y626D01*
X-423Y639D01*
X-425Y652D01*
X-423Y665D01*
X-426Y673D01*
Y682D01*
X-423Y690D01*
X-426Y698D01*
X-434Y702D01*
X-472D01*
X-480Y698D01*
X-484Y690D01*
X-480Y682D01*
Y673D01*
X-484Y665D01*
X-481Y652D01*
X-484Y639D01*
X-483Y638D01*
X-485Y634D01*
X-491Y622D01*
X-514D01*
X-520Y628D01*
X-530D01*
X-538Y620D01*
Y610D01*
X-530Y602D01*
X-520D01*
X-517Y605D01*
X-491D01*
X-483Y590D01*
X-484Y588D01*
X-480Y579D01*
Y571D01*
X-484Y562D01*
X-480Y554D01*
X-472Y550D01*
X-471D01*
X-469Y547D01*
X-474Y528D01*
X-476Y526D01*
X-482Y529D01*
X-509D01*
Y530D01*
X-511Y534D01*
X-514Y535D01*
X-530D01*
X-534Y534D01*
X-535Y530D01*
X-549Y522D01*
X-550Y522D01*
X-550Y522D01*
X-552Y526D01*
X-552D01*
X-558Y529D01*
X-558Y529D01*
X-564Y526D01*
X-564D01*
X-566Y522D01*
X-566D01*
X-567Y520D01*
X-567Y520D01*
X-567Y518D01*
Y460D01*
Y382D01*
X-567Y374D01*
X-569Y370D01*
X-566Y364D01*
X-560Y361D01*
X-554Y364D01*
X-554D01*
X-552Y366D01*
X-552Y366D01*
X-549Y372D01*
X-549Y372D01*
X-549Y377D01*
Y448D01*
X-535Y450D01*
X-534Y446D01*
X-530Y445D01*
X-514D01*
X-507Y431D01*
Y411D01*
X-513Y405D01*
Y395D01*
X-505Y387D01*
X-495D01*
X-487Y395D01*
Y405D01*
X-490Y409D01*
Y442D01*
X-475Y449D01*
X-472Y448D01*
X-434D01*
X-426Y452D01*
X-423Y460D01*
X-426Y468D01*
Y477D01*
X-423Y485D01*
X-426Y494D01*
Y503D01*
X-423Y511D01*
X-425Y517D01*
X-426Y521D01*
X-424Y535D01*
X-404Y555D01*
X-389Y549D01*
Y424D01*
X-586Y226D01*
X-589Y220D01*
Y203D01*
X-800D01*
X-802Y202D01*
X-803Y200D01*
Y123D01*
X-856D01*
X-862Y120D01*
X-876Y106D01*
X-879Y100D01*
Y20D01*
X-876Y14D01*
X-798Y-64D01*
X-800Y-74D01*
X-802Y-80D01*
X-803Y-80D01*
X-803Y-81D01*
Y-81D01*
X-803Y-82D01*
Y-298D01*
X-805D01*
Y-305D01*
X-883D01*
X-889Y-307D01*
X-930Y-347D01*
X-963D01*
Y-393D01*
X-917D01*
Y-360D01*
X-880Y-322D01*
X-805D01*
Y-329D01*
X-803D01*
Y-355D01*
X-802Y-357D01*
X-800Y-358D01*
X-796Y-370D01*
Y-409D01*
X-792Y-417D01*
X-800Y-431D01*
X-801Y-432D01*
X-802Y-432D01*
X-802Y-432D01*
X-803Y-433D01*
X-803Y-433D01*
X-803Y-434D01*
X-803Y-435D01*
Y-600D01*
X-802Y-602D01*
X-800Y-603D01*
X-400D01*
X-398Y-602D01*
X-397Y-600D01*
Y157D01*
X-395D01*
X-387Y165D01*
Y175D01*
X-395Y183D01*
X-404D01*
X-410Y190D01*
X-414Y195D01*
X-411Y200D01*
Y251D01*
X-411Y252D01*
X-400D01*
X-396Y254D01*
X-395Y257D01*
Y273D01*
X-395Y274D01*
X-396Y277D01*
X-396Y291D01*
X-380D01*
X-369Y280D01*
Y-610D01*
X-366Y-616D01*
X-271Y-711D01*
X-265Y-714D01*
X-120D01*
X-114Y-711D01*
X-54Y-651D01*
X-51Y-645D01*
Y-634D01*
X-36D01*
X-16Y-614D01*
Y-586D01*
X-36Y-566D01*
X-64D01*
X-84Y-586D01*
Y-614D01*
X-69Y-630D01*
Y-642D01*
X-124Y-696D01*
X-261D01*
X-351Y-606D01*
Y316D01*
X-237Y431D01*
X-234Y437D01*
Y448D01*
X-215D01*
X-209Y433D01*
X-236Y406D01*
X-321Y321D01*
X-324Y315D01*
Y-435D01*
X-321Y-441D01*
X-184Y-579D01*
X-186Y-584D01*
Y-616D01*
X-180Y-630D01*
X-166Y-636D01*
X-134D01*
X-120Y-630D01*
X-114Y-616D01*
Y-584D01*
X-120Y-570D01*
X-134Y-564D01*
X-166D01*
X-171Y-566D01*
X-304Y-434D01*
X-303Y-429D01*
X-301Y-426D01*
X-286Y-422D01*
X-285Y-423D01*
X-275D01*
X-270Y-419D01*
X-173D01*
X-167Y-416D01*
X-161Y-410D01*
X-159Y-404D01*
Y-399D01*
X-159D01*
X-155Y-397D01*
X-153Y-393D01*
Y-360D01*
X-155Y-356D01*
X-159Y-355D01*
X-170Y-355D01*
X-181Y-344D01*
Y-275D01*
X-184Y-269D01*
X-256Y-196D01*
Y111D01*
X-124Y244D01*
X-121Y250D01*
Y535D01*
X-124Y541D01*
X-197Y614D01*
X-197Y615D01*
X-199Y627D01*
X-198Y636D01*
X-196Y639D01*
X-200Y647D01*
Y656D01*
X-196Y665D01*
X-200Y673D01*
Y682D01*
X-196Y690D01*
X-200Y698D01*
X-208Y702D01*
D02*
G37*
G36*
X550Y539D02*
X544Y536D01*
X544D01*
X542Y535D01*
X531Y524D01*
X502Y524D01*
X495Y524D01*
X495Y524D01*
X492Y523D01*
D01*
X488Y521D01*
Y521D01*
X486Y515D01*
X488Y509D01*
Y509D01*
X492Y507D01*
D01*
X495Y506D01*
X495Y506D01*
X497Y506D01*
X535D01*
X541Y509D01*
X555Y522D01*
X556Y524D01*
Y524D01*
X559Y530D01*
X559Y530D01*
X558Y533D01*
X558D01*
X556Y536D01*
X553Y538D01*
D01*
X550Y539D01*
X550Y539D01*
D02*
G37*
G36*
X140Y531D02*
X83D01*
X75Y528D01*
X72Y520D01*
X72Y520D01*
X70Y516D01*
X70Y505D01*
X70Y505D01*
X71Y503D01*
D01*
X73Y499D01*
X73D01*
X79Y497D01*
X79Y497D01*
X85Y499D01*
X85D01*
X87Y503D01*
D01*
X87Y503D01*
X99Y509D01*
X140D01*
X148Y512D01*
X151Y520D01*
X148Y528D01*
X140Y531D01*
D02*
G37*
G36*
X624Y427D02*
X587D01*
Y414D01*
X514D01*
Y426D01*
X483D01*
Y384D01*
X514D01*
Y396D01*
X587D01*
Y383D01*
X624D01*
Y427D01*
D02*
G37*
G36*
X655Y411D02*
X655Y411D01*
X652Y410D01*
Y410D01*
X648Y408D01*
X647Y405D01*
D01*
X646Y402D01*
X646Y402D01*
X648Y396D01*
Y396D01*
X654Y390D01*
X674Y370D01*
X650Y346D01*
X648Y344D01*
Y344D01*
X646Y338D01*
X646Y338D01*
X647Y335D01*
X647D01*
X648Y332D01*
X652Y330D01*
D01*
X655Y329D01*
X655Y329D01*
X661Y332D01*
X661D01*
X666Y337D01*
X685Y356D01*
X702Y356D01*
X710Y356D01*
X710Y356D01*
X712Y357D01*
D01*
X716Y359D01*
Y359D01*
X719Y365D01*
X716Y371D01*
Y371D01*
X712Y373D01*
D01*
X710Y374D01*
X710Y374D01*
X708Y374D01*
X695D01*
X662Y407D01*
X661Y408D01*
X661D01*
X655Y411D01*
X655Y411D01*
D02*
G37*
G36*
X624Y357D02*
X587D01*
Y344D01*
X514D01*
Y356D01*
X483D01*
Y314D01*
X514D01*
Y326D01*
X587D01*
Y313D01*
X624D01*
Y357D01*
D02*
G37*
G36*
Y287D02*
X587D01*
Y274D01*
X514D01*
Y286D01*
X483D01*
Y244D01*
X514D01*
Y256D01*
X587D01*
Y243D01*
X624D01*
Y287D01*
D02*
G37*
G36*
X655Y274D02*
X648Y271D01*
X647Y267D01*
D01*
X646Y265D01*
X646Y265D01*
X646Y262D01*
X646Y262D01*
X648Y256D01*
X648Y256D01*
X652Y252D01*
X676Y228D01*
X676Y215D01*
X676Y215D01*
X677Y213D01*
D01*
X679Y209D01*
X679D01*
X685Y206D01*
X691Y209D01*
X691D01*
X693Y213D01*
D01*
X694Y215D01*
X694Y215D01*
X694Y217D01*
Y232D01*
X691Y238D01*
X663Y266D01*
X661Y271D01*
X655Y274D01*
D02*
G37*
G36*
X745Y159D02*
X739Y156D01*
X739D01*
X733Y151D01*
X711Y129D01*
X687Y129D01*
X680Y129D01*
X680Y129D01*
X677Y128D01*
D01*
X673Y126D01*
Y126D01*
X671Y120D01*
X673Y114D01*
Y114D01*
X677Y112D01*
D01*
X680Y111D01*
X680Y111D01*
X682Y111D01*
X715D01*
X721Y114D01*
X750Y142D01*
X751Y144D01*
Y144D01*
X754Y150D01*
X754Y150D01*
X752Y153D01*
X752D01*
X751Y156D01*
X748Y157D01*
D01*
X745Y159D01*
X745Y159D01*
D02*
G37*
G36*
X809Y32D02*
X772D01*
Y19D01*
X699D01*
Y31D01*
X668D01*
Y-11D01*
X699D01*
Y1D01*
X772D01*
Y-12D01*
X809D01*
Y32D01*
D02*
G37*
G36*
X840Y19D02*
X833Y16D01*
X833D01*
X832Y12D01*
D01*
X831Y10D01*
X831Y10D01*
X831Y8D01*
Y-25D01*
X831Y-52D01*
X831Y-60D01*
X831Y-60D01*
X832Y-62D01*
D01*
X833Y-66D01*
X833D01*
X840Y-69D01*
X846Y-66D01*
X846D01*
X847Y-62D01*
D01*
X848Y-60D01*
X848Y-60D01*
X848Y-58D01*
Y-34D01*
X874D01*
X877Y-34D01*
X879Y-36D01*
X879D01*
X885Y-39D01*
X885Y-39D01*
X888Y-38D01*
Y-38D01*
X891Y-36D01*
X892Y-33D01*
X892D01*
X894Y-30D01*
X891Y-24D01*
Y-24D01*
X886Y-19D01*
X886Y-19D01*
X885Y-19D01*
X880Y-16D01*
X880Y-16D01*
X879Y-16D01*
X848D01*
X848Y2D01*
X848Y10D01*
X848Y10D01*
X847Y12D01*
D01*
X846Y16D01*
X846D01*
X840Y19D01*
D02*
G37*
G36*
X-136Y-28D02*
X-193D01*
Y-40D01*
X-216D01*
X-220Y-37D01*
X-230D01*
X-238Y-45D01*
Y-55D01*
X-230Y-63D01*
X-220D01*
X-217Y-60D01*
X-200Y-61D01*
X-196Y-66D01*
X-193Y-73D01*
X-193Y-83D01*
X-193Y-85D01*
Y-137D01*
X-127D01*
Y-143D01*
X-123Y-153D01*
X26Y-303D01*
X-123Y-452D01*
X-153D01*
Y-447D01*
X-155Y-443D01*
X-159Y-441D01*
X-170D01*
X-174Y-443D01*
X-176Y-447D01*
Y-463D01*
X-176Y-463D01*
X-176Y-464D01*
X-176Y-479D01*
X-176Y-481D01*
X-188Y-489D01*
X-204Y-473D01*
Y-466D01*
X-204Y-466D01*
Y-447D01*
X-206Y-443D01*
X-210Y-441D01*
X-221D01*
X-225Y-443D01*
X-227Y-447D01*
Y-480D01*
X-225Y-484D01*
X-221Y-485D01*
X-217D01*
X-181Y-521D01*
X-175Y-524D01*
X-25D01*
X-19Y-521D01*
X9Y-493D01*
X15D01*
X23Y-485D01*
Y-479D01*
X70Y-433D01*
X103D01*
Y-387D01*
X57D01*
Y-420D01*
X11Y-467D01*
X5D01*
X-3Y-475D01*
Y-481D01*
X-29Y-506D01*
X-168D01*
X-173Y-500D01*
X-173Y-499D01*
X-165Y-485D01*
X-159Y-485D01*
X-155Y-484D01*
X-153Y-480D01*
Y-475D01*
X-118D01*
X-110Y-471D01*
X42Y-319D01*
X74Y-350D01*
X74Y-350D01*
X84Y-354D01*
X84Y-354D01*
X240D01*
X243Y-353D01*
X245D01*
X247Y-351D01*
X250Y-350D01*
X251Y-347D01*
X253Y-345D01*
Y-343D01*
X254Y-340D01*
X254Y-339D01*
X324Y-269D01*
X614D01*
X706Y-360D01*
X704Y-367D01*
X700Y-376D01*
X699Y-376D01*
X697Y-380D01*
Y-381D01*
X663D01*
Y-380D01*
X661Y-376D01*
X658Y-375D01*
X642D01*
X639Y-376D01*
X637Y-380D01*
X623Y-378D01*
X623Y-376D01*
X623Y-352D01*
X624Y-350D01*
X621Y-344D01*
X615Y-341D01*
X609Y-344D01*
X609D01*
X608Y-345D01*
X608Y-345D01*
X607Y-347D01*
X606Y-351D01*
X606Y-351D01*
X606Y-351D01*
X606Y-351D01*
X606Y-361D01*
X606Y-382D01*
X606Y-390D01*
X606Y-390D01*
X606Y-392D01*
X606D01*
X608Y-396D01*
X608D01*
X614Y-399D01*
X620Y-396D01*
X622Y-392D01*
X622Y-392D01*
X623Y-392D01*
X637Y-400D01*
X639Y-404D01*
X642Y-405D01*
X650D01*
Y-451D01*
X647D01*
X644Y-452D01*
X643Y-455D01*
Y-458D01*
X629Y-470D01*
X623Y-470D01*
X617Y-461D01*
Y-455D01*
X616Y-452D01*
X613Y-451D01*
X606D01*
X605Y-451D01*
X604Y-447D01*
X581Y-425D01*
Y-370D01*
X578Y-362D01*
X551Y-335D01*
X543Y-332D01*
X533D01*
Y-301D01*
X467D01*
Y-316D01*
X420D01*
X420Y-316D01*
X410Y-320D01*
X410Y-320D01*
X164Y-566D01*
X164Y-566D01*
X136D01*
X116Y-586D01*
Y-614D01*
X136Y-634D01*
X164D01*
X184Y-614D01*
Y-586D01*
X184Y-586D01*
X426Y-344D01*
X467D01*
Y-359D01*
X533D01*
Y-359D01*
X546Y-362D01*
X559Y-375D01*
Y-429D01*
X562Y-437D01*
X582Y-457D01*
X586Y-472D01*
X585Y-475D01*
X585Y-485D01*
X571Y-491D01*
X548D01*
X543Y-485D01*
X536Y-483D01*
X511D01*
Y-405D01*
X508Y-397D01*
X500Y-393D01*
X492Y-397D01*
X489Y-405D01*
Y-468D01*
X474Y-483D01*
X428D01*
X422Y-483D01*
X420Y-483D01*
X420Y-483D01*
X418Y-484D01*
D01*
X414Y-485D01*
Y-485D01*
X411Y-491D01*
X414Y-498D01*
Y-498D01*
X418Y-499D01*
D01*
X420Y-500D01*
X420Y-500D01*
X422Y-500D01*
X533D01*
X539Y-506D01*
X545Y-509D01*
X545Y-509D01*
X589D01*
X599Y-509D01*
X599D01*
X601Y-509D01*
X604Y-507D01*
X616Y-513D01*
X617Y-513D01*
X619Y-514D01*
Y-558D01*
X614Y-571D01*
Y-571D01*
X614Y-571D01*
Y-571D01*
X609Y-576D01*
X604Y-577D01*
X601Y-577D01*
X556D01*
X554Y-576D01*
X538D01*
X511Y-548D01*
Y-533D01*
X469D01*
Y-537D01*
X441D01*
Y-533D01*
X399D01*
Y-564D01*
X441D01*
Y-560D01*
X469D01*
Y-564D01*
X495D01*
X526Y-595D01*
X528Y-596D01*
X533Y-611D01*
X533Y-613D01*
X505Y-641D01*
X380D01*
X366Y-646D01*
X361Y-660D01*
X366Y-674D01*
X380Y-679D01*
X514D01*
X527Y-674D01*
X571Y-630D01*
X608D01*
Y-591D01*
X608Y-591D01*
X609Y-589D01*
X622Y-585D01*
X633Y-594D01*
X634Y-595D01*
X642Y-599D01*
X650D01*
Y-630D01*
X715D01*
Y-599D01*
X718D01*
X726Y-595D01*
X763Y-559D01*
X773D01*
X773Y-533D01*
X773Y-518D01*
Y-501D01*
X747D01*
Y-503D01*
X722D01*
X711Y-492D01*
X703Y-488D01*
X689D01*
X675Y-485D01*
X675Y-465D01*
X675Y-455D01*
X674Y-452D01*
X671Y-451D01*
X668D01*
Y-401D01*
X669Y-399D01*
X697D01*
Y-400D01*
X699Y-404D01*
X702Y-405D01*
X718D01*
X719Y-405D01*
X722Y-404D01*
X734D01*
X737Y-405D01*
X738Y-405D01*
X754D01*
X757Y-404D01*
X759Y-400D01*
Y-399D01*
X867D01*
Y-413D01*
X913D01*
Y-367D01*
X867D01*
Y-381D01*
X759D01*
Y-380D01*
X757Y-376D01*
X754Y-375D01*
X745D01*
X624Y-254D01*
X618Y-251D01*
X320D01*
X314Y-254D01*
X241Y-326D01*
X240Y-326D01*
X89D01*
X54Y-291D01*
X54Y-291D01*
X-83Y-153D01*
X-77Y-139D01*
X-70Y-139D01*
X-17D01*
Y-81D01*
X-83D01*
Y-117D01*
X-98Y-125D01*
X-99Y-124D01*
Y-124D01*
X-99Y-124D01*
X-100Y-121D01*
Y-83D01*
X-132D01*
X-136Y-70D01*
X-136Y-68D01*
Y-28D01*
D02*
G37*
G36*
X809Y-38D02*
X772D01*
Y-51D01*
X699D01*
Y-39D01*
X668D01*
Y-81D01*
X699D01*
Y-69D01*
X772D01*
Y-82D01*
X809D01*
Y-38D01*
D02*
G37*
G36*
X-95Y-11D02*
X-101Y-14D01*
X-101D01*
X-103Y-18D01*
D01*
X-104Y-20D01*
X-104Y-20D01*
X-104Y-22D01*
Y-38D01*
X-101Y-44D01*
X-90Y-55D01*
X-84Y-58D01*
X-68Y-58D01*
X-68Y-58D01*
X-65Y-57D01*
D01*
X-62Y-55D01*
Y-55D01*
X-59Y-49D01*
X-62Y-43D01*
Y-43D01*
X-65Y-41D01*
D01*
X-68Y-40D01*
X-68Y-40D01*
X-70Y-40D01*
X-74D01*
X-86Y-28D01*
X-86Y-20D01*
X-86Y-20D01*
X-87Y-18D01*
D01*
X-89Y-14D01*
X-89D01*
X-95Y-11D01*
D02*
G37*
G36*
X809Y-108D02*
X772D01*
Y-121D01*
X699D01*
Y-109D01*
X668D01*
Y-151D01*
X699D01*
Y-139D01*
X772D01*
Y-152D01*
X809D01*
Y-108D01*
D02*
G37*
G36*
X-932Y-93D02*
X-945Y-101D01*
X-963Y-127D01*
X-966Y-142D01*
X-957Y-155D01*
X-931Y-173D01*
X-916Y-176D01*
X-903Y-168D01*
X-885Y-141D01*
X-882Y-126D01*
X-891Y-113D01*
X-917Y-96D01*
X-932Y-93D01*
D02*
G37*
G36*
X840Y-121D02*
X833Y-124D01*
X833D01*
X832Y-128D01*
D01*
X831Y-130D01*
X831Y-130D01*
X831Y-132D01*
Y-167D01*
X820Y-177D01*
X819Y-179D01*
Y-179D01*
X816Y-185D01*
X816Y-185D01*
X817Y-188D01*
X817D01*
X819Y-191D01*
X822Y-192D01*
D01*
X825Y-194D01*
X825Y-194D01*
X831Y-191D01*
X831D01*
X837Y-186D01*
X846Y-177D01*
X848Y-170D01*
X848Y-138D01*
X848Y-130D01*
X848Y-130D01*
X847Y-128D01*
D01*
X846Y-124D01*
X846D01*
X840Y-121D01*
D02*
G37*
G36*
X-890Y-626D02*
X-892Y-626D01*
X-925D01*
X-931Y-629D01*
X-950Y-647D01*
X-951Y-649D01*
Y-649D01*
X-954Y-655D01*
X-954Y-655D01*
X-952Y-658D01*
X-952D01*
X-951Y-661D01*
X-948Y-663D01*
D01*
X-945Y-664D01*
X-945Y-664D01*
X-939Y-661D01*
X-939D01*
X-933Y-656D01*
X-921Y-644D01*
X-898Y-644D01*
X-890Y-644D01*
X-890Y-644D01*
X-884Y-641D01*
Y-641D01*
X-881Y-635D01*
X-884Y-629D01*
X-888Y-627D01*
D01*
X-890Y-626D01*
X-890Y-626D01*
D02*
G37*
G36*
X1094Y-508D02*
X1036D01*
X995Y-549D01*
Y-607D01*
X1036Y-648D01*
X1094D01*
X1135Y-607D01*
Y-549D01*
X1094Y-508D01*
D02*
G37*
G36*
X-1036D02*
X-1094D01*
X-1135Y-549D01*
Y-607D01*
X-1094Y-648D01*
X-1036D01*
X-995Y-607D01*
Y-549D01*
X-1036Y-508D01*
D02*
G37*
%LPD*%
G36*
X-265Y630D02*
X-256Y615D01*
X-257Y613D01*
X-256Y611D01*
X-265Y596D01*
X-272D01*
X-278Y594D01*
X-299Y573D01*
X-305D01*
X-313Y565D01*
Y555D01*
X-305Y547D01*
X-296D01*
X-287Y535D01*
X-299Y523D01*
X-305D01*
X-313Y515D01*
Y505D01*
X-305Y497D01*
X-295D01*
X-287Y505D01*
Y510D01*
X-276Y520D01*
X-270Y519D01*
X-257Y511D01*
X-256Y508D01*
X-254Y498D01*
X-256Y489D01*
X-257Y485D01*
X-254Y477D01*
Y468D01*
X-256Y464D01*
X-257Y460D01*
X-254Y452D01*
X-255Y437D01*
X-366Y326D01*
X-381Y311D01*
X-396Y312D01*
X-400Y314D01*
X-420D01*
X-424Y312D01*
X-425Y309D01*
Y293D01*
X-425Y292D01*
X-424Y289D01*
Y277D01*
X-425Y274D01*
X-425Y273D01*
Y262D01*
X-426Y261D01*
X-429Y255D01*
Y204D01*
X-454Y179D01*
X-463Y181D01*
X-469Y185D01*
Y223D01*
X-467Y225D01*
Y235D01*
X-475Y243D01*
X-485D01*
X-493Y235D01*
Y225D01*
X-491Y223D01*
Y203D01*
X-567D01*
X-570Y218D01*
X-374Y414D01*
X-371Y420D01*
Y566D01*
X-307Y630D01*
X-265D01*
D02*
G37*
G36*
X-139Y532D02*
Y254D01*
X-271Y121D01*
X-274Y115D01*
Y-200D01*
X-271Y-206D01*
X-199Y-279D01*
Y-348D01*
X-212Y-355D01*
X-215Y-354D01*
X-245Y-324D01*
X-251Y-321D01*
X-260Y-321D01*
X-260Y-321D01*
X-262Y-322D01*
D01*
X-266Y-324D01*
Y-324D01*
X-269Y-330D01*
X-269Y-330D01*
X-266Y-336D01*
Y-336D01*
X-262Y-338D01*
D01*
X-262Y-338D01*
X-250Y-344D01*
X-228Y-366D01*
X-224Y-376D01*
X-224Y-377D01*
X-222Y-383D01*
X-218Y-391D01*
X-226Y-401D01*
X-270D01*
X-275Y-397D01*
X-285D01*
X-291Y-402D01*
X-291Y-403D01*
X-295Y-402D01*
Y-402D01*
X-295Y-402D01*
X-295D01*
X-306Y-394D01*
Y311D01*
X-230Y388D01*
X-226Y384D01*
X-220Y381D01*
X-205D01*
X-205Y381D01*
X-204Y366D01*
X-205Y363D01*
X-205Y362D01*
Y346D01*
X-204Y343D01*
X-200Y341D01*
X-199D01*
Y284D01*
X-269Y213D01*
X-275D01*
X-283Y205D01*
Y195D01*
X-275Y187D01*
X-265D01*
X-257Y195D01*
Y201D01*
X-184Y274D01*
X-181Y280D01*
Y341D01*
X-180D01*
X-176Y343D01*
X-175Y346D01*
Y362D01*
X-175Y363D01*
X-176Y366D01*
Y378D01*
X-175Y381D01*
X-175Y382D01*
Y398D01*
X-176Y401D01*
X-180Y403D01*
X-193D01*
X-200Y418D01*
X-174Y444D01*
X-171Y450D01*
Y470D01*
X-174Y476D01*
X-183Y485D01*
X-174Y497D01*
X-165D01*
X-157Y505D01*
Y515D01*
X-165Y523D01*
X-175D01*
X-184Y524D01*
X-191Y529D01*
X-196Y537D01*
X-199Y549D01*
X-196Y562D01*
X-197Y564D01*
X-195Y567D01*
X-176Y569D01*
X-139Y532D01*
D02*
G37*
G36*
X-589Y84D02*
X-632Y40D01*
X-779D01*
X-781Y52D01*
X-800Y65D01*
Y106D01*
X-764Y106D01*
X-756Y106D01*
X-756Y106D01*
X-754Y107D01*
D01*
X-750Y108D01*
Y108D01*
X-747Y114D01*
X-750Y120D01*
Y120D01*
X-754Y122D01*
D01*
X-756Y123D01*
X-756Y123D01*
X-758Y123D01*
X-800D01*
Y200D01*
X-589D01*
Y84D01*
D02*
G37*
G36*
X-400Y-600D02*
X-800D01*
Y-435D01*
X-785Y-428D01*
X-783D01*
X-748Y-463D01*
X-740Y-466D01*
X-725D01*
Y-477D01*
X-697D01*
X-663Y-512D01*
X-657Y-514D01*
X-636D01*
Y-563D01*
X-579D01*
Y-497D01*
X-626D01*
X-628Y-497D01*
X-653D01*
X-685Y-465D01*
Y-432D01*
X-725D01*
Y-432D01*
X-740Y-439D01*
X-767Y-412D01*
Y-410D01*
X-773Y-404D01*
Y-386D01*
X-764D01*
Y-355D01*
X-800D01*
Y-322D01*
X-629D01*
Y-455D01*
X-625Y-465D01*
X-615Y-469D01*
X-605Y-465D01*
X-601Y-455D01*
Y-305D01*
Y-195D01*
X-604Y-189D01*
Y-120D01*
X-538Y-54D01*
X-458Y-135D01*
X-456Y-136D01*
X-456D01*
X-450Y-139D01*
X-450Y-139D01*
X-447Y-138D01*
D01*
X-444Y-136D01*
X-442Y-133D01*
D01*
X-441Y-130D01*
X-441Y-130D01*
X-444Y-124D01*
Y-124D01*
X-445Y-122D01*
X-445Y-122D01*
X-449Y-118D01*
X-526Y-42D01*
X-472Y12D01*
X-469Y20D01*
Y151D01*
X-460D01*
X-454Y154D01*
X-446Y161D01*
X-400D01*
Y-600D01*
D02*
G37*
G36*
X-491Y160D02*
Y25D01*
X-548Y-32D01*
X-548Y-32D01*
X-623Y-107D01*
X-626Y-115D01*
Y-187D01*
X-651D01*
X-800Y-38D01*
Y-1D01*
X-791Y0D01*
X-776Y23D01*
X-629D01*
X-622Y25D01*
X-574Y74D01*
X-571Y80D01*
Y200D01*
X-491D01*
Y160D01*
D02*
G37*
G36*
X-661Y-201D02*
X-655Y-204D01*
X-629D01*
Y-305D01*
X-800D01*
Y-82D01*
X-786Y-76D01*
X-661Y-201D01*
D02*
G37*
%LPC*%
G36*
X-525Y-430D02*
X-540Y-437D01*
X-547Y-452D01*
Y-457D01*
X-544Y-463D01*
X-547Y-469D01*
Y-497D01*
X-561D01*
Y-563D01*
X-504D01*
Y-544D01*
X-430D01*
X-427Y-543D01*
X-425D01*
X-423Y-541D01*
X-420Y-540D01*
X-419Y-537D01*
X-417Y-535D01*
Y-533D01*
X-416Y-530D01*
X-417Y-527D01*
Y-525D01*
X-419Y-523D01*
X-420Y-520D01*
X-423Y-519D01*
X-425Y-517D01*
X-427D01*
X-430Y-516D01*
X-504D01*
Y-497D01*
X-519D01*
Y-477D01*
X-509Y-473D01*
X-503Y-457D01*
Y-452D01*
X-509Y-437D01*
X-525Y-430D01*
D02*
G37*
%LPD*%
D16*
X499Y335D02*
D03*
X441D02*
D03*
X499Y405D02*
D03*
X441D02*
D03*
X499Y265D02*
D03*
X441D02*
D03*
X684Y-60D02*
D03*
X626D02*
D03*
X684Y-130D02*
D03*
X626D02*
D03*
X684Y10D02*
D03*
X626D02*
D03*
X3Y760D02*
D03*
X60D02*
D03*
X3Y690D02*
D03*
X60D02*
D03*
X3Y620D02*
D03*
X60D02*
D03*
D17*
X340Y412D02*
D03*
Y375D02*
D03*
Y338D02*
D03*
X250D02*
D03*
Y375D02*
D03*
Y412D02*
D03*
X525Y7D02*
D03*
Y-30D02*
D03*
Y-67D02*
D03*
X435D02*
D03*
Y-30D02*
D03*
Y7D02*
D03*
D18*
X495Y515D02*
D03*
X445D02*
D03*
X655Y405D02*
D03*
X605D02*
D03*
X655Y335D02*
D03*
X605D02*
D03*
X655Y265D02*
D03*
X605D02*
D03*
X840Y-130D02*
D03*
X790D02*
D03*
Y-60D02*
D03*
X840D02*
D03*
X630Y120D02*
D03*
X680D02*
D03*
X790Y10D02*
D03*
X840D02*
D03*
X167Y760D02*
D03*
X216D02*
D03*
X167Y620D02*
D03*
X216D02*
D03*
X167Y690D02*
D03*
X216D02*
D03*
D19*
X-890Y-635D02*
D03*
X80Y-410D02*
D03*
X890Y-390D02*
D03*
X-940Y-370D02*
D03*
D20*
X-146Y-110D02*
D03*
D21*
X-50D02*
D03*
D22*
X-68Y-49D02*
D03*
D23*
X-164D02*
D03*
D24*
X35Y-85D02*
D03*
X135D02*
D03*
X-35Y85D02*
D03*
X-135D02*
D03*
X35D02*
D03*
X135D02*
D03*
D25*
X85Y-27D02*
D03*
Y-143D02*
D03*
X-85Y27D02*
D03*
Y143D02*
D03*
X85D02*
D03*
Y27D02*
D03*
D26*
Y-85D02*
D03*
X-85Y85D02*
D03*
X85D02*
D03*
D27*
X-533Y-530D02*
D03*
X-607D02*
D03*
D28*
X-784Y-370D02*
D03*
Y-313D02*
D03*
X490Y-549D02*
D03*
Y-491D02*
D03*
X420Y-549D02*
D03*
Y-491D02*
D03*
D29*
X4Y415D02*
D03*
X41D02*
D03*
X79D02*
D03*
Y505D02*
D03*
X41D02*
D03*
X4D02*
D03*
D30*
X500Y-330D02*
D03*
Y-405D02*
D03*
D31*
X-522Y520D02*
D03*
X-558D02*
D03*
X-522Y460D02*
D03*
X-558D02*
D03*
X710Y-390D02*
D03*
X746D02*
D03*
X614D02*
D03*
X650D02*
D03*
D32*
X-190Y354D02*
D03*
Y390D02*
D03*
X-410Y265D02*
D03*
Y301D02*
D03*
D33*
X659Y-460D02*
D03*
Y-480D02*
D03*
Y-500D02*
D03*
X601D02*
D03*
Y-480D02*
D03*
Y-460D02*
D03*
D34*
X-89Y615D02*
D03*
Y665D02*
D03*
D35*
X682Y-604D02*
D03*
X576D02*
D03*
D36*
X-705Y-455D02*
D03*
D37*
X-615D02*
D03*
X-525D02*
D03*
D38*
X-615Y-195D02*
D03*
D39*
X760Y-546D02*
D03*
Y-514D02*
D03*
D40*
X-164Y-463D02*
D03*
X-216D02*
D03*
Y-377D02*
D03*
X-190D02*
D03*
X-164D02*
D03*
D41*
X-227Y460D02*
D03*
Y485D02*
D03*
X-227Y511D02*
D03*
X-227Y537D02*
D03*
X-227Y562D02*
D03*
Y588D02*
D03*
X-227Y613D02*
D03*
X-227Y639D02*
D03*
Y665D02*
D03*
Y690D02*
D03*
X-453Y460D02*
D03*
Y485D02*
D03*
Y511D02*
D03*
X-453Y537D02*
D03*
X-453Y562D02*
D03*
Y588D02*
D03*
X-453Y613D02*
D03*
X-453Y639D02*
D03*
X-453Y665D02*
D03*
Y690D02*
D03*
D67*
X-84Y-49D02*
X-68D01*
X-95Y-38D02*
X-84Y-49D01*
X-95Y-38D02*
Y-20D01*
X215Y467D02*
X229Y453D01*
X215Y467D02*
Y470D01*
X229Y417D02*
Y453D01*
X499Y405D02*
X605D01*
X400Y311D02*
Y342D01*
X499Y335D02*
X605D01*
X692Y365D02*
X710D01*
X655Y338D02*
X682Y365D01*
X692D01*
X655Y402D02*
X692Y365D01*
X495Y515D02*
X535D01*
X550Y530D01*
X400Y311D02*
X441Y270D01*
Y335D01*
Y511D02*
X445Y515D01*
X400Y467D02*
X441Y508D01*
X400Y405D02*
X441D01*
Y508D02*
Y511D01*
X400Y415D02*
Y467D01*
Y405D02*
Y415D01*
Y342D02*
Y405D01*
X400Y405D01*
X400Y342D02*
X434D01*
X441Y335D01*
X340Y412D02*
X397D01*
X400Y415D01*
X441Y265D02*
Y270D01*
X655Y262D02*
X685Y232D01*
Y215D02*
Y232D01*
X499Y265D02*
X605D01*
X655Y262D02*
Y265D01*
X10Y-480D02*
X80Y-410D01*
X-25Y-515D02*
X10Y-480D01*
X-225Y-50D02*
X-224Y-49D01*
X-164D01*
X290Y100D02*
X383Y7D01*
X435D01*
X-251Y-330D02*
X-216Y-366D01*
X-260Y-330D02*
X-251D01*
X-216Y-377D02*
Y-366D01*
X-265Y-200D02*
X-190Y-275D01*
Y-377D02*
Y-275D01*
X-280Y-410D02*
X-173D01*
X-167Y-404D01*
Y-380D01*
X-164Y-377D01*
X-213Y-477D02*
X-175Y-515D01*
X-213Y-477D02*
Y-466D01*
X-175Y-515D02*
X-25D01*
X-216Y-463D02*
X-213Y-466D01*
X-190Y280D02*
Y354D01*
X-270Y200D02*
X-190Y280D01*
X-230Y400D02*
X-180Y450D01*
X-315Y315D02*
X-230Y400D01*
X-220Y390D01*
X-190D01*
X-180Y450D02*
Y470D01*
X229Y417D02*
X233Y412D01*
X250D01*
X626Y-130D02*
Y-125D01*
X595Y-94D02*
X626Y-125D01*
X595Y-94D02*
Y-24D01*
X626Y-60D02*
Y-55D01*
X595Y-24D02*
X626Y-55D01*
X595Y-24D02*
Y7D01*
X525D02*
X595D01*
X624D01*
X626Y10D01*
X595Y7D02*
Y82D01*
X626Y113D01*
X684Y-130D02*
X790D01*
X684Y-60D02*
X790D01*
X684Y10D02*
X790D01*
X680Y120D02*
X715D01*
X745Y150D01*
X825Y-185D02*
X840Y-170D01*
Y-60D02*
Y-25D01*
Y-170D02*
Y-130D01*
X880Y-25D02*
X885Y-30D01*
X840Y-25D02*
X880D01*
X840D02*
Y10D01*
X-945Y-655D02*
X-925Y-635D01*
X-890D01*
X-940Y-370D02*
X-883Y-313D01*
X-784D01*
X-623D02*
X-615Y-305D01*
X-784Y-313D02*
X-623D01*
X-657Y-505D02*
X-628D01*
X-705Y-457D02*
X-657Y-505D01*
X-705Y-457D02*
Y-455D01*
X-607Y-530D02*
Y-526D01*
X-628Y-505D02*
X-607Y-526D01*
X-540Y-40D02*
X-450Y-130D01*
X216Y725D02*
Y760D01*
Y690D02*
Y725D01*
X265D01*
X270Y720D01*
X227Y583D02*
Y609D01*
X216Y620D02*
X227Y609D01*
Y583D02*
X250Y560D01*
X-40Y570D02*
X-20Y550D01*
X-86Y615D02*
X-40Y570D01*
X-40Y570D01*
Y696D01*
X-34Y690D02*
X3D01*
X-40Y696D02*
X-34Y690D01*
X-40Y696D02*
Y712D01*
X3Y755D02*
Y760D01*
X-40Y712D02*
X3Y755D01*
X3Y550D02*
Y619D01*
Y506D02*
Y550D01*
X-20D02*
X3D01*
X-89Y615D02*
X-86D01*
X-558Y372D02*
Y460D01*
X-560Y370D02*
X-558Y372D01*
Y460D02*
Y520D01*
X545Y-500D02*
X545Y-500D01*
X601D02*
X601Y-500D01*
X545Y-500D02*
X601D01*
X492Y-491D02*
X536D01*
X490D02*
X492D01*
X536D02*
X545Y-500D01*
X420Y-491D02*
X490D01*
X492D02*
X500Y-484D01*
X614Y-351D02*
X615Y-350D01*
X614Y-390D02*
Y-351D01*
X79Y516D02*
X83Y520D01*
X79Y505D02*
Y516D01*
X-395Y576D02*
Y635D01*
X-453Y537D02*
X-434D01*
X-395Y576D01*
X-127Y700D02*
X-91Y665D01*
X-135Y700D02*
X-127D01*
X-91Y665D02*
X-89D01*
X602Y-481D02*
X621D01*
X625Y-485D01*
X601Y-480D02*
X602Y-481D01*
X320Y-260D02*
X618D01*
X240Y-340D02*
X320Y-260D01*
X746Y-390D02*
Y-388D01*
X618Y-260D02*
X746Y-388D01*
Y-390D02*
X890D01*
X659Y-460D02*
Y-401D01*
X650Y-392D02*
X659Y-401D01*
X650Y-392D02*
Y-390D01*
X710D01*
X60Y620D02*
X167D01*
X60Y690D02*
X167D01*
X60Y760D02*
X167D01*
X-89Y615D02*
X-84Y620D01*
X3D02*
X3Y619D01*
Y506D02*
X4Y505D01*
X-499Y401D02*
Y485D01*
X-500Y400D02*
X-499Y401D01*
X-450Y170D02*
X-420Y200D01*
X-460Y160D02*
X-450Y170D01*
X-400D01*
X-417Y260D02*
X-412Y265D01*
X-417Y258D02*
Y260D01*
X-420Y255D02*
X-417Y258D01*
X-420Y200D02*
Y255D01*
X-412Y265D02*
X-410D01*
X-480Y160D02*
X-460D01*
X-856Y114D02*
X-756D01*
X-870Y100D02*
X-856Y114D01*
X-870Y20D02*
Y100D01*
Y20D02*
X-655Y-195D01*
X-615D01*
X-523Y613D02*
X-453D01*
X-525Y615D02*
X-523Y613D01*
X-522Y520D02*
X-482D01*
X-473Y511D01*
X-453D01*
X-522Y462D02*
X-499Y485D01*
X-453D01*
X-522Y460D02*
Y462D01*
X-311Y639D02*
X-227D01*
X-380Y570D02*
X-311Y639D01*
X-380Y420D02*
Y570D01*
X-580Y220D02*
X-380Y420D01*
X-580Y80D02*
Y220D01*
X-629Y31D02*
X-580Y80D01*
X-812Y31D02*
X-629D01*
X-273Y537D02*
X-227D01*
X-300Y510D02*
X-273Y537D01*
X4Y398D02*
Y415D01*
X-0Y394D02*
X4Y398D01*
X-46Y394D02*
X-0D01*
X-50Y390D02*
X-46Y394D01*
X-171Y511D02*
X-170Y510D01*
X-227Y511D02*
X-171D01*
X-300Y560D02*
X-272Y588D01*
X-227D01*
X-208Y613D02*
X-130Y535D01*
X-227Y613D02*
X-208D01*
X-227Y485D02*
X-195D01*
X-180Y470D01*
X-265Y115D02*
X-130Y250D01*
Y535D01*
X-243Y457D02*
X-240Y460D01*
X-360Y320D02*
X-243Y437D01*
Y457D01*
X-240Y460D02*
X-227D01*
X-402Y300D02*
X-380D01*
X-265Y-200D02*
Y115D01*
X-315Y-435D02*
Y315D01*
Y-435D02*
X-150Y-600D01*
X-60Y-645D02*
Y-610D01*
X-120Y-705D02*
X-60Y-645D01*
Y-610D02*
X-50Y-600D01*
X-265Y-705D02*
X-120D01*
X-360Y-610D02*
X-265Y-705D01*
X-360Y-610D02*
Y320D01*
X-380Y300D02*
X-360Y320D01*
D68*
X92Y143D02*
X94Y145D01*
Y166D02*
X231Y304D01*
X85Y143D02*
X92D01*
X94Y145D02*
Y166D01*
X85Y85D02*
Y143D01*
X353Y338D02*
X355Y336D01*
Y275D02*
Y336D01*
X340Y338D02*
X353D01*
X231Y304D02*
Y336D01*
X-164Y-463D02*
X-118D01*
X44Y-301D01*
X-85Y27D02*
Y85D01*
X85Y-143D02*
Y-85D01*
Y-27D01*
Y-85D02*
X135D01*
Y-72D02*
X140Y-67D01*
X135Y-85D02*
Y-72D01*
X140Y-67D02*
X435D01*
X-135Y85D02*
X-85D01*
Y143D01*
Y215D01*
X41Y341D01*
X85Y85D02*
X135D01*
X85Y27D02*
Y85D01*
X233Y338D02*
X250D01*
X231Y336D02*
X233Y338D01*
X250D02*
Y375D01*
X340D01*
X485Y-130D02*
X507Y-108D01*
Y-69D01*
X509Y-67D01*
X525D01*
X435Y-30D02*
X525D01*
X-780Y-415D02*
Y-414D01*
X-784Y-409D02*
Y-370D01*
Y-409D02*
X-780Y-414D01*
X-784Y-370D02*
X-779D01*
X-740Y-455D02*
X-705D01*
X-780Y-415D02*
X-740Y-455D01*
X500Y-484D02*
Y-405D01*
X83Y520D02*
X140D01*
X642Y-587D02*
X666D01*
X682Y-604D01*
X630Y-575D02*
X642Y-587D01*
X625Y-485D02*
X630Y-490D01*
Y-575D02*
Y-490D01*
X682Y-604D02*
X698Y-587D01*
X718D02*
X760Y-546D01*
X698Y-587D02*
X718D01*
X717Y-514D02*
X760D01*
X659Y-500D02*
X703D01*
X717Y-514D01*
X554Y-587D02*
X570Y-604D01*
X490Y-549D02*
X495D01*
X534Y-587D01*
X554D01*
X420Y-549D02*
X490D01*
X41Y341D02*
Y415D01*
X435Y-67D02*
Y-30D01*
X41Y415D02*
X79D01*
X41D02*
Y505D01*
X-540Y-40D02*
X-480Y20D01*
X-615Y-115D02*
X-540Y-40D01*
X-480Y160D02*
Y230D01*
Y20D02*
Y160D01*
X-615Y-195D02*
Y-115D01*
X570Y-429D02*
Y-370D01*
X513Y-343D02*
X543D01*
X500Y-330D02*
X513Y-343D01*
X543D02*
X570Y-370D01*
X597Y-460D02*
X601D01*
X596Y-459D02*
X597Y-460D01*
X596Y-459D02*
Y-455D01*
X570Y-429D02*
X596Y-455D01*
D69*
X44Y-301D02*
X84Y-340D01*
X-113Y-143D02*
X44Y-301D01*
X-127Y-110D02*
X-113Y-124D01*
X84Y-340D02*
X240D01*
X-146Y-110D02*
X-127D01*
X-113Y-143D02*
Y-124D01*
X-615Y-305D02*
Y-195D01*
Y-455D02*
Y-305D01*
X-533Y-530D02*
Y-469D01*
X-525Y-461D01*
Y-455D01*
X-533Y-530D02*
X-430D01*
X420Y-330D02*
X500D01*
X150Y-600D02*
X420Y-330D01*
D70*
X0Y0D02*
X5Y-5D01*
Y-43D02*
Y-5D01*
Y-43D02*
X35Y-73D01*
Y-85D02*
Y-73D01*
X15Y82D02*
X32D01*
X35Y85D01*
X0Y67D02*
X15Y82D01*
X-35Y85D02*
X-18D01*
X0Y67D01*
Y0D02*
Y67D01*
X380Y-660D02*
X514D01*
X570Y-604D01*
D71*
X-1065Y-578D02*
D03*
X0Y997D02*
D03*
X1065Y-578D02*
D03*
D72*
X-756Y114D02*
D03*
X-812Y31D02*
D03*
X-868Y-51D02*
D03*
X-50Y-600D02*
D03*
X50D02*
D03*
X150D02*
D03*
D73*
X-924Y-134D02*
D03*
D74*
X-150Y-600D02*
D03*
D75*
X-95Y-20D02*
D03*
X215Y470D02*
D03*
X710Y365D02*
D03*
X355Y275D02*
D03*
X550Y530D02*
D03*
X685Y215D02*
D03*
X10Y-480D02*
D03*
X-225Y-50D02*
D03*
X0Y0D02*
D03*
X290Y100D02*
D03*
X-260Y-330D02*
D03*
X825Y-185D02*
D03*
X485Y-130D02*
D03*
X885Y-30D02*
D03*
X745Y150D02*
D03*
X-430Y-530D02*
D03*
X-450Y-130D02*
D03*
X270Y720D02*
D03*
X-560Y370D02*
D03*
X-780Y-415D02*
D03*
X545Y-500D02*
D03*
X615Y-350D02*
D03*
X-945Y-655D02*
D03*
X140Y520D02*
D03*
X-395Y635D02*
D03*
X-135Y700D02*
D03*
X250Y560D02*
D03*
X240Y-340D02*
D03*
X380Y-660D02*
D03*
X-280Y-410D02*
D03*
X-500Y400D02*
D03*
X-480Y230D02*
D03*
X-270Y200D02*
D03*
X-400Y170D02*
D03*
X-525Y615D02*
D03*
X-300Y510D02*
D03*
X-50Y390D02*
D03*
X-170Y510D02*
D03*
X-300Y560D02*
D03*
M02*
