G04*
G04 #@! TF.GenerationSoftware,Altium Limited,Altium Designer,21.6.4 (81)*
G04*
G04 Layer_Color=8388736*
%FSLAX23Y23*%
%MOIN*%
G70*
G04*
G04 #@! TF.SameCoordinates,5C7EE660-6927-4EDB-96E5-1C855801FDE5*
G04*
G04*
G04 #@! TF.FilePolarity,Negative*
G04*
G01*
G75*
%ADD35R,0.059X0.047*%
%ADD36R,0.034X0.040*%
G04:AMPARAMS|DCode=37|XSize=40mil|YSize=34mil|CornerRadius=17mil|HoleSize=0mil|Usage=FLASHONLY|Rotation=90.000|XOffset=0mil|YOffset=0mil|HoleType=Round|Shape=RoundedRectangle|*
%AMROUNDEDRECTD37*
21,1,0.040,0.000,0,0,90.0*
21,1,0.005,0.034,0,0,90.0*
1,1,0.034,0.000,0.003*
1,1,0.034,0.000,-0.003*
1,1,0.034,0.000,-0.003*
1,1,0.034,0.000,0.003*
%
%ADD37ROUNDEDRECTD37*%
G04:AMPARAMS|DCode=38|XSize=40mil|YSize=125mil|CornerRadius=17mil|HoleSize=0mil|Usage=FLASHONLY|Rotation=90.000|XOffset=0mil|YOffset=0mil|HoleType=Round|Shape=RoundedRectangle|*
%AMROUNDEDRECTD38*
21,1,0.040,0.091,0,0,90.0*
21,1,0.005,0.125,0,0,90.0*
1,1,0.034,0.045,0.003*
1,1,0.034,0.045,-0.003*
1,1,0.034,-0.045,-0.003*
1,1,0.034,-0.045,0.003*
%
%ADD38ROUNDEDRECTD38*%
%ADD39R,0.020X0.020*%
G04:AMPARAMS|DCode=40|XSize=37mil|YSize=16mil|CornerRadius=2mil|HoleSize=0mil|Usage=FLASHONLY|Rotation=270.000|XOffset=0mil|YOffset=0mil|HoleType=Round|Shape=RoundedRectangle|*
%AMROUNDEDRECTD40*
21,1,0.037,0.012,0,0,270.0*
21,1,0.033,0.016,0,0,270.0*
1,1,0.004,-0.006,-0.017*
1,1,0.004,-0.006,0.017*
1,1,0.004,0.006,0.017*
1,1,0.004,0.006,-0.017*
%
%ADD40ROUNDEDRECTD40*%
%ADD42R,0.034X0.043*%
%ADD43R,0.059X0.027*%
%ADD44R,0.039X0.045*%
%ADD45R,0.047X0.047*%
%ADD46R,0.095X0.055*%
%ADD47R,0.067X0.059*%
%ADD48R,0.102X0.039*%
%ADD49R,0.059X0.043*%
%ADD50R,0.028X0.063*%
%ADD51R,0.098X0.023*%
%ADD52R,0.043X0.098*%
%ADD53R,0.059X0.067*%
%ADD54R,0.043X0.034*%
%ADD55R,0.027X0.059*%
%ADD56R,0.067X0.059*%
G04:AMPARAMS|DCode=57|XSize=27mil|YSize=32mil|CornerRadius=6mil|HoleSize=0mil|Usage=FLASHONLY|Rotation=0.000|XOffset=0mil|YOffset=0mil|HoleType=Round|Shape=RoundedRectangle|*
%AMROUNDEDRECTD57*
21,1,0.027,0.020,0,0,0.0*
21,1,0.015,0.032,0,0,0.0*
1,1,0.012,0.008,-0.010*
1,1,0.012,-0.008,-0.010*
1,1,0.012,-0.008,0.010*
1,1,0.012,0.008,0.010*
%
%ADD57ROUNDEDRECTD57*%
G04:AMPARAMS|DCode=58|XSize=27mil|YSize=32mil|CornerRadius=6mil|HoleSize=0mil|Usage=FLASHONLY|Rotation=270.000|XOffset=0mil|YOffset=0mil|HoleType=Round|Shape=RoundedRectangle|*
%AMROUNDEDRECTD58*
21,1,0.027,0.020,0,0,270.0*
21,1,0.015,0.032,0,0,270.0*
1,1,0.012,-0.010,-0.008*
1,1,0.012,-0.010,0.008*
1,1,0.012,0.010,0.008*
1,1,0.012,0.010,-0.008*
%
%ADD58ROUNDEDRECTD58*%
G04:AMPARAMS|DCode=59|XSize=34mil|YSize=20mil|CornerRadius=5mil|HoleSize=0mil|Usage=FLASHONLY|Rotation=0.000|XOffset=0mil|YOffset=0mil|HoleType=Round|Shape=RoundedRectangle|*
%AMROUNDEDRECTD59*
21,1,0.034,0.010,0,0,0.0*
21,1,0.024,0.020,0,0,0.0*
1,1,0.010,0.012,-0.005*
1,1,0.010,-0.012,-0.005*
1,1,0.010,-0.012,0.005*
1,1,0.010,0.012,0.005*
%
%ADD59ROUNDEDRECTD59*%
%ADD60R,0.045X0.039*%
%ADD61O,0.061X0.024*%
%ADD62C,0.126*%
%ADD63C,0.071*%
G04:AMPARAMS|DCode=64|XSize=71mil|YSize=71mil|CornerRadius=20mil|HoleSize=0mil|Usage=FLASHONLY|Rotation=56.000|XOffset=0mil|YOffset=0mil|HoleType=Round|Shape=RoundedRectangle|*
%AMROUNDEDRECTD64*
21,1,0.071,0.031,0,0,56.0*
21,1,0.031,0.071,0,0,56.0*
1,1,0.039,0.022,0.004*
1,1,0.039,0.004,-0.022*
1,1,0.039,-0.022,-0.004*
1,1,0.039,-0.004,0.022*
%
%ADD64ROUNDEDRECTD64*%
G04:AMPARAMS|DCode=65|XSize=71mil|YSize=71mil|CornerRadius=20mil|HoleSize=0mil|Usage=FLASHONLY|Rotation=0.000|XOffset=0mil|YOffset=0mil|HoleType=Round|Shape=RoundedRectangle|*
%AMROUNDEDRECTD65*
21,1,0.071,0.031,0,0,0.0*
21,1,0.031,0.071,0,0,0.0*
1,1,0.039,0.016,-0.016*
1,1,0.039,-0.016,-0.016*
1,1,0.039,-0.016,0.016*
1,1,0.039,0.016,0.016*
%
%ADD65ROUNDEDRECTD65*%
%ADD66C,0.028*%
D35*
X682Y-604D02*
D03*
X576D02*
D03*
D36*
X-705Y-455D02*
D03*
D37*
X-615D02*
D03*
X-525D02*
D03*
D38*
X-615Y-195D02*
D03*
D39*
X760Y-546D02*
D03*
Y-514D02*
D03*
D40*
X-164Y-463D02*
D03*
X-216D02*
D03*
Y-377D02*
D03*
X-190D02*
D03*
X-164D02*
D03*
D42*
X499Y335D02*
D03*
X441D02*
D03*
X499Y405D02*
D03*
X441D02*
D03*
X499Y265D02*
D03*
X441D02*
D03*
X684Y-60D02*
D03*
X626D02*
D03*
X684Y-130D02*
D03*
X626D02*
D03*
X684Y10D02*
D03*
X626D02*
D03*
X3Y760D02*
D03*
X60D02*
D03*
X3Y690D02*
D03*
X60D02*
D03*
X3Y620D02*
D03*
X60D02*
D03*
D43*
X340Y412D02*
D03*
Y375D02*
D03*
Y338D02*
D03*
X250D02*
D03*
Y375D02*
D03*
Y412D02*
D03*
X525Y7D02*
D03*
Y-30D02*
D03*
Y-67D02*
D03*
X435D02*
D03*
Y-30D02*
D03*
Y7D02*
D03*
D44*
X495Y515D02*
D03*
X445D02*
D03*
X655Y405D02*
D03*
X605D02*
D03*
X655Y335D02*
D03*
X605D02*
D03*
X655Y265D02*
D03*
X605D02*
D03*
X840Y-130D02*
D03*
X790D02*
D03*
Y-60D02*
D03*
X840D02*
D03*
X630Y120D02*
D03*
X680D02*
D03*
X790Y10D02*
D03*
X840D02*
D03*
X167Y760D02*
D03*
X216D02*
D03*
X167Y620D02*
D03*
X216D02*
D03*
X167Y690D02*
D03*
X216D02*
D03*
D45*
X-890Y-635D02*
D03*
X80Y-410D02*
D03*
X890Y-390D02*
D03*
X-940Y-370D02*
D03*
D46*
X-146Y-110D02*
D03*
D47*
X-50D02*
D03*
D48*
X-68Y-49D02*
D03*
D49*
X-164D02*
D03*
D50*
X35Y-85D02*
D03*
X135D02*
D03*
X-35Y85D02*
D03*
X-135D02*
D03*
X35D02*
D03*
X135D02*
D03*
D51*
X85Y-27D02*
D03*
Y-143D02*
D03*
X-85Y27D02*
D03*
Y143D02*
D03*
X85D02*
D03*
Y27D02*
D03*
D52*
Y-85D02*
D03*
X-85Y85D02*
D03*
X85D02*
D03*
D53*
X-533Y-530D02*
D03*
X-607D02*
D03*
D54*
X-784Y-370D02*
D03*
Y-313D02*
D03*
X490Y-549D02*
D03*
Y-491D02*
D03*
X420Y-549D02*
D03*
Y-491D02*
D03*
D55*
X4Y415D02*
D03*
X41D02*
D03*
X79D02*
D03*
Y505D02*
D03*
X41D02*
D03*
X4D02*
D03*
D56*
X500Y-330D02*
D03*
Y-405D02*
D03*
D57*
X-522Y520D02*
D03*
X-558D02*
D03*
X-522Y460D02*
D03*
X-558D02*
D03*
X710Y-390D02*
D03*
X746D02*
D03*
X614D02*
D03*
X650D02*
D03*
D58*
X-190Y354D02*
D03*
Y390D02*
D03*
X-410Y265D02*
D03*
Y301D02*
D03*
D59*
X659Y-460D02*
D03*
Y-480D02*
D03*
Y-500D02*
D03*
X601D02*
D03*
Y-480D02*
D03*
Y-460D02*
D03*
D60*
X-89Y615D02*
D03*
Y665D02*
D03*
D61*
X-227Y460D02*
D03*
Y485D02*
D03*
X-227Y511D02*
D03*
X-227Y537D02*
D03*
X-227Y562D02*
D03*
Y588D02*
D03*
X-227Y613D02*
D03*
X-227Y639D02*
D03*
Y665D02*
D03*
Y690D02*
D03*
X-453Y460D02*
D03*
Y485D02*
D03*
Y511D02*
D03*
X-453Y537D02*
D03*
X-453Y562D02*
D03*
Y588D02*
D03*
X-453Y613D02*
D03*
X-453Y639D02*
D03*
X-453Y665D02*
D03*
Y690D02*
D03*
D62*
X-1065Y-578D02*
D03*
X0Y997D02*
D03*
X1065Y-578D02*
D03*
D63*
X-756Y114D02*
D03*
X-812Y31D02*
D03*
X-868Y-51D02*
D03*
X-50Y-600D02*
D03*
X50D02*
D03*
X150D02*
D03*
D64*
X-924Y-134D02*
D03*
D65*
X-150Y-600D02*
D03*
D66*
X-95Y-20D02*
D03*
X10Y-480D02*
D03*
X-225Y-50D02*
D03*
X0Y0D02*
D03*
X-260Y-330D02*
D03*
M02*
