G04*
G04 #@! TF.GenerationSoftware,Altium Limited,Altium Designer,21.6.4 (81)*
G04*
G04 Layer_Color=65535*
%FSLAX23Y23*%
%MOIN*%
G70*
G04*
G04 #@! TF.SameCoordinates,5C7EE660-6927-4EDB-96E5-1C855801FDE5*
G04*
G04*
G04 #@! TF.FilePolarity,Positive*
G04*
G01*
G75*
%ADD10C,0.008*%
%ADD11C,0.005*%
%ADD12C,0.010*%
%ADD13C,0.024*%
%ADD14C,0.003*%
%ADD15C,0.002*%
D10*
X201Y412D02*
G03*
X201Y412I-4J0D01*
G01*
X386Y7D02*
G03*
X386Y7I-4J0D01*
G01*
X8Y362D02*
G03*
X8Y362I-4J0D01*
G01*
X571Y-456D02*
G03*
X571Y-456I-4J0D01*
G01*
X566Y-667D02*
X692D01*
X566Y-565D02*
Y-541D01*
Y-667D02*
Y-642D01*
Y-541D02*
X692D01*
Y-565D02*
Y-541D01*
Y-667D02*
Y-642D01*
X-743Y-394D02*
Y-256D01*
X-487D01*
Y-394D02*
Y-256D01*
X-743Y-394D02*
X-487D01*
X-769Y190D02*
X-681Y131D01*
X-999Y-151D02*
X-769Y190D01*
X-999Y-151D02*
X-911Y-210D01*
X-681Y131D01*
X-206Y-653D02*
X206D01*
X-206D02*
Y-547D01*
X206D01*
Y-653D02*
Y-547D01*
X735Y-550D02*
Y-510D01*
X785Y-550D02*
Y-510D01*
X-232Y-411D02*
X-148D01*
X-232Y-429D02*
Y-411D01*
Y-429D02*
X-148D01*
Y-411D01*
X-411Y445D02*
X-269D01*
X-411Y705D02*
X-269D01*
X-269Y445D01*
X-411D02*
X-411Y705D01*
D11*
X276Y0D02*
G03*
X276Y0I-276J0D01*
G01*
X354D02*
G03*
X354Y0I-354J0D01*
G01*
X467Y319D02*
X473D01*
X467Y351D02*
X473D01*
X467Y389D02*
X473D01*
X467Y421D02*
X473D01*
X288Y318D02*
X302D01*
X288Y432D02*
X302D01*
X467Y249D02*
X473D01*
X467Y281D02*
X473D01*
X473Y-87D02*
X487D01*
X473Y27D02*
X487D01*
X652Y-76D02*
X658D01*
X652Y-44D02*
X658D01*
X652Y-146D02*
X658D01*
X652Y-114D02*
X658D01*
X652Y-6D02*
X658D01*
X652Y26D02*
X658D01*
X-930Y-675D02*
Y-595D01*
X-850Y-675D02*
Y-595D01*
X-930D02*
X-850D01*
X-930Y-675D02*
X-850D01*
X-576Y-556D02*
X-564D01*
X-576Y-504D02*
X-564D01*
X-800Y-345D02*
Y-339D01*
X-769Y-345D02*
Y-339D01*
X-16Y453D02*
Y467D01*
X99Y453D02*
Y467D01*
X28Y776D02*
X35D01*
X28Y744D02*
X35D01*
X28Y706D02*
X35D01*
X28Y674D02*
X35D01*
X28Y636D02*
X35D01*
X28Y604D02*
X35D01*
X526Y-373D02*
Y-361D01*
X474Y-373D02*
Y-361D01*
X474Y-523D02*
Y-517D01*
X506Y-523D02*
Y-517D01*
X404Y-523D02*
Y-517D01*
X436Y-523D02*
Y-517D01*
X40Y-450D02*
Y-370D01*
X120Y-450D02*
Y-370D01*
X40D02*
X120D01*
X40Y-450D02*
X120D01*
X850Y-430D02*
Y-350D01*
X930Y-430D02*
Y-350D01*
X850D02*
X930D01*
X850Y-430D02*
X930D01*
X-980Y-410D02*
Y-330D01*
X-900Y-410D02*
Y-330D01*
X-980D02*
X-900D01*
X-980Y-410D02*
X-900D01*
X606Y-518D02*
X654D01*
X606Y-442D02*
X654D01*
X113Y-695D02*
X123D01*
X118D01*
Y-665D01*
X113Y-670D01*
X157Y-695D02*
X138D01*
X157Y-675D01*
Y-670D01*
X152Y-665D01*
X143D01*
X138Y-670D01*
X167Y-665D02*
Y-685D01*
X177Y-695D01*
X187Y-685D01*
Y-665D01*
X-810Y-625D02*
X-815Y-620D01*
X-825D01*
X-830Y-625D01*
Y-645D01*
X-825Y-650D01*
X-815D01*
X-810Y-645D01*
Y-635D01*
X-820D01*
X-800Y-650D02*
Y-620D01*
X-780Y-650D01*
Y-620D01*
X-770D02*
Y-650D01*
X-755D01*
X-750Y-645D01*
Y-625D01*
X-755Y-620D01*
X-770D01*
X-1112Y-370D02*
X-1107Y-365D01*
X-1097D01*
X-1092Y-370D01*
Y-375D01*
X-1097Y-380D01*
X-1102D01*
X-1097D01*
X-1092Y-385D01*
Y-390D01*
X-1097Y-395D01*
X-1107D01*
X-1112Y-390D01*
X-1082Y-395D02*
Y-390D01*
X-1077D01*
Y-395D01*
X-1082D01*
X-1058Y-370D02*
X-1053Y-365D01*
X-1043D01*
X-1038Y-370D01*
Y-375D01*
X-1043Y-380D01*
X-1048D01*
X-1043D01*
X-1038Y-385D01*
Y-390D01*
X-1043Y-395D01*
X-1053D01*
X-1058Y-390D01*
X-1028Y-365D02*
Y-385D01*
X-1018Y-395D01*
X-1008Y-385D01*
Y-365D01*
X-780Y-70D02*
X-785Y-65D01*
X-795D01*
X-800Y-70D01*
Y-90D01*
X-795Y-95D01*
X-785D01*
X-780Y-90D01*
Y-80D01*
X-790D01*
X-770Y-95D02*
Y-65D01*
X-750Y-95D01*
Y-65D01*
X-740D02*
Y-95D01*
X-725D01*
X-720Y-90D01*
Y-70D01*
X-725Y-65D01*
X-740D01*
X-170Y-670D02*
X-175Y-665D01*
X-185D01*
X-190Y-670D01*
Y-675D01*
X-185Y-680D01*
X-175D01*
X-170Y-685D01*
Y-690D01*
X-175Y-695D01*
X-185D01*
X-190Y-690D01*
X-140Y-670D02*
X-145Y-665D01*
X-155D01*
X-160Y-670D01*
Y-690D01*
X-155Y-695D01*
X-145D01*
X-140Y-690D01*
X-130Y-665D02*
Y-695D01*
X-110D01*
X-70Y-670D02*
X-75Y-665D01*
X-85D01*
X-90Y-670D01*
Y-675D01*
X-85Y-680D01*
X-75D01*
X-70Y-685D01*
Y-690D01*
X-75Y-695D01*
X-85D01*
X-90Y-690D01*
X-60Y-665D02*
Y-695D01*
X-45D01*
X-40Y-690D01*
Y-670D01*
X-45Y-665D01*
X-60D01*
X-30Y-695D02*
Y-675D01*
X-20Y-665D01*
X-10Y-675D01*
Y-695D01*
Y-680D01*
X-30D01*
X-860Y-195D02*
Y-165D01*
X-845D01*
X-840Y-170D01*
Y-180D01*
X-845Y-185D01*
X-860D01*
X-850D02*
X-840Y-195D01*
X-810Y-170D02*
X-815Y-165D01*
X-825D01*
X-830Y-170D01*
Y-175D01*
X-825Y-180D01*
X-815D01*
X-810Y-185D01*
Y-190D01*
X-815Y-195D01*
X-825D01*
X-830Y-190D01*
X-800Y-165D02*
X-780D01*
X-790D01*
Y-195D01*
X975Y-365D02*
X955D01*
Y-380D01*
X965Y-375D01*
X970D01*
X975Y-380D01*
Y-390D01*
X970Y-395D01*
X960D01*
X955Y-390D01*
X985Y-365D02*
Y-385D01*
X995Y-395D01*
X1005Y-385D01*
Y-365D01*
X30Y-670D02*
X25Y-665D01*
X15D01*
X10Y-670D01*
Y-690D01*
X15Y-695D01*
X25D01*
X30Y-690D01*
Y-680D01*
X20D01*
X40Y-695D02*
Y-665D01*
X60Y-695D01*
Y-665D01*
X70D02*
Y-695D01*
X85D01*
X90Y-690D01*
Y-670D01*
X85Y-665D01*
X70D01*
X-92Y1317D02*
X-82D01*
X-87D01*
Y1287D01*
X-92D01*
X-82D01*
X-67D02*
X-57D01*
X-62D01*
Y1317D01*
X-67D01*
X-42Y1287D02*
X-32D01*
X-37D01*
Y1317D01*
X-42D01*
X-17Y1307D02*
Y1292D01*
X-12Y1287D01*
X2D01*
Y1307D01*
X32Y1317D02*
Y1287D01*
X17D01*
X12Y1292D01*
Y1302D01*
X17Y1307D01*
X32D01*
X57Y1287D02*
X47D01*
X42Y1292D01*
Y1302D01*
X47Y1307D01*
X57D01*
X62Y1302D01*
Y1297D01*
X42D01*
X72Y1287D02*
Y1307D01*
X87D01*
X92Y1302D01*
Y1287D01*
X-142Y1269D02*
Y1239D01*
X-122D01*
X-92Y1269D02*
X-112D01*
Y1239D01*
X-92D01*
X-112Y1254D02*
X-102D01*
X-82Y1269D02*
Y1239D01*
X-67D01*
X-62Y1244D01*
Y1264D01*
X-67Y1269D01*
X-82D01*
X-22Y1239D02*
Y1269D01*
X-12Y1259D01*
X-2Y1269D01*
Y1239D01*
X12D02*
X22D01*
X27Y1244D01*
Y1254D01*
X22Y1259D01*
X12D01*
X7Y1254D01*
Y1244D01*
X12Y1239D01*
X57Y1269D02*
Y1239D01*
X42D01*
X37Y1244D01*
Y1254D01*
X42Y1259D01*
X57D01*
X67D02*
Y1244D01*
X72Y1239D01*
X87D01*
Y1259D01*
X97Y1239D02*
X107D01*
X102D01*
Y1269D01*
X97D01*
X137Y1239D02*
X127D01*
X122Y1244D01*
Y1254D01*
X127Y1259D01*
X137D01*
X142Y1254D01*
Y1249D01*
X122D01*
X-165Y1221D02*
Y1191D01*
X-150D01*
X-145Y1196D01*
Y1216D01*
X-150Y1221D01*
X-165D01*
X-120Y1191D02*
X-130D01*
X-135Y1196D01*
Y1206D01*
X-130Y1211D01*
X-120D01*
X-115Y1206D01*
Y1201D01*
X-135D01*
X-105Y1191D02*
X-90D01*
X-85Y1196D01*
X-90Y1201D01*
X-100D01*
X-105Y1206D01*
X-100Y1211D01*
X-85D01*
X-75Y1191D02*
X-65D01*
X-70D01*
Y1211D01*
X-75D01*
X-40Y1181D02*
X-35D01*
X-30Y1186D01*
Y1211D01*
X-45D01*
X-50Y1206D01*
Y1196D01*
X-45Y1191D01*
X-30D01*
X-20D02*
Y1211D01*
X-5D01*
X0Y1206D01*
Y1191D01*
X25D02*
X15D01*
X10Y1196D01*
Y1206D01*
X15Y1211D01*
X25D01*
X30Y1206D01*
Y1201D01*
X10D01*
X60Y1221D02*
Y1191D01*
X45D01*
X40Y1196D01*
Y1206D01*
X45Y1211D01*
X60D01*
X100Y1221D02*
Y1191D01*
X115D01*
X120Y1196D01*
Y1201D01*
X115Y1206D01*
X100D01*
X115D01*
X120Y1211D01*
Y1216D01*
X115Y1221D01*
X100D01*
X130Y1211D02*
Y1196D01*
X135Y1191D01*
X150D01*
Y1186D01*
X145Y1181D01*
X140D01*
X150Y1191D02*
Y1211D01*
X160D02*
X165D01*
Y1206D01*
X160D01*
Y1211D01*
Y1196D02*
X165D01*
Y1191D01*
X160D01*
Y1196D01*
X-80Y1163D02*
Y1133D01*
Y1148D01*
X-60D01*
Y1163D01*
Y1133D01*
X-50Y1153D02*
Y1138D01*
X-45Y1133D01*
X-30D01*
Y1153D01*
X-20Y1133D02*
Y1153D01*
X-5D01*
X0Y1148D01*
Y1133D01*
X15Y1158D02*
Y1153D01*
X10D01*
X20D01*
X15D01*
Y1138D01*
X20Y1133D01*
X50D02*
X40D01*
X35Y1138D01*
Y1148D01*
X40Y1153D01*
X50D01*
X55Y1148D01*
Y1143D01*
X35D01*
X65Y1153D02*
Y1133D01*
Y1143D01*
X70Y1148D01*
X75Y1153D01*
X80D01*
X-125Y1085D02*
Y1115D01*
X-115Y1105D01*
X-105Y1115D01*
Y1085D01*
X-75Y1105D02*
X-90D01*
X-95Y1100D01*
Y1090D01*
X-90Y1085D01*
X-75D01*
X-45Y1110D02*
X-50Y1115D01*
X-60D01*
X-65Y1110D01*
Y1090D01*
X-60Y1085D01*
X-50D01*
X-45Y1090D01*
X-35Y1105D02*
Y1090D01*
X-30Y1085D01*
X-15D01*
Y1105D01*
X-5Y1085D02*
X5D01*
X0D01*
Y1115D01*
X-5D01*
X20Y1085D02*
X30D01*
X25D01*
Y1115D01*
X20D01*
X50Y1105D02*
X60D01*
X65Y1100D01*
Y1085D01*
X50D01*
X45Y1090D01*
X50Y1095D01*
X65D01*
X85Y1075D02*
X90D01*
X95Y1080D01*
Y1105D01*
X80D01*
X75Y1100D01*
Y1090D01*
X80Y1085D01*
X95D01*
X105Y1115D02*
Y1085D01*
Y1100D01*
X110Y1105D01*
X120D01*
X125Y1100D01*
Y1085D01*
X-672Y110D02*
X-667Y115D01*
X-657D01*
X-652Y110D01*
Y105D01*
X-657Y100D01*
X-662D01*
X-657D01*
X-652Y95D01*
Y90D01*
X-657Y85D01*
X-667D01*
X-672Y90D01*
X-642Y85D02*
Y90D01*
X-637D01*
Y85D01*
X-642D01*
X-618Y110D02*
X-613Y115D01*
X-603D01*
X-598Y110D01*
Y105D01*
X-603Y100D01*
X-608D01*
X-603D01*
X-598Y95D01*
Y90D01*
X-603Y85D01*
X-613D01*
X-618Y90D01*
X-588Y115D02*
Y95D01*
X-578Y85D01*
X-568Y95D01*
Y115D01*
X-735Y5D02*
Y35D01*
X-720D01*
X-715Y30D01*
Y20D01*
X-720Y15D01*
X-735D01*
X-705Y35D02*
Y5D01*
X-690D01*
X-685Y10D01*
Y30D01*
X-690Y35D01*
X-705D01*
X-675Y5D02*
X-665D01*
X-670D01*
Y35D01*
X-675Y30D01*
X-131Y-65D02*
Y-90D01*
X-126Y-95D01*
X-116D01*
X-111Y-90D01*
Y-65D01*
X-101Y-70D02*
X-96Y-65D01*
X-86D01*
X-81Y-70D01*
Y-75D01*
X-86Y-80D01*
X-91D01*
X-86D01*
X-81Y-85D01*
Y-90D01*
X-86Y-95D01*
X-96D01*
X-101Y-90D01*
X60Y-72D02*
Y-102D01*
X75D01*
X80Y-97D01*
Y-77D01*
X75Y-72D01*
X60D01*
X90Y-77D02*
X95Y-72D01*
X105D01*
X110Y-77D01*
Y-82D01*
X105Y-87D01*
X100D01*
X105D01*
X110Y-92D01*
Y-97D01*
X105Y-102D01*
X95D01*
X90Y-97D01*
X-110Y105D02*
Y75D01*
X-95D01*
X-90Y80D01*
Y100D01*
X-95Y105D01*
X-110D01*
X-60Y75D02*
X-80D01*
X-60Y95D01*
Y100D01*
X-65Y105D01*
X-75D01*
X-80Y100D01*
X65Y100D02*
Y70D01*
X80D01*
X85Y75D01*
Y95D01*
X80Y100D01*
X65D01*
X95Y70D02*
X105D01*
X100D01*
Y100D01*
X95Y95D01*
X635Y-170D02*
X630Y-165D01*
X620D01*
X615Y-170D01*
Y-175D01*
X620Y-180D01*
X630D01*
X635Y-185D01*
Y-190D01*
X630Y-195D01*
X620D01*
X615Y-190D01*
X645Y-165D02*
Y-195D01*
X660D01*
X665Y-190D01*
Y-185D01*
X660Y-180D01*
X645D01*
X660D01*
X665Y-175D01*
Y-170D01*
X660Y-165D01*
X645D01*
X675Y-190D02*
X680Y-195D01*
X690D01*
X695Y-190D01*
Y-170D01*
X690Y-165D01*
X680D01*
X675Y-170D01*
Y-175D01*
X680Y-180D01*
X695D01*
X745Y-40D02*
X750Y-35D01*
Y-25D01*
X745Y-20D01*
X740D01*
X735Y-25D01*
Y-35D01*
X730Y-40D01*
X725D01*
X720Y-35D01*
Y-25D01*
X725Y-20D01*
X750Y-50D02*
X720D01*
Y-65D01*
X725Y-70D01*
X730D01*
X735Y-65D01*
Y-50D01*
Y-65D01*
X740Y-70D01*
X745D01*
X750Y-65D01*
Y-50D01*
X745Y-80D02*
X750Y-85D01*
Y-95D01*
X745Y-100D01*
X740D01*
X735Y-95D01*
X730Y-100D01*
X725D01*
X720Y-95D01*
Y-85D01*
X725Y-80D01*
X730D01*
X735Y-85D01*
X740Y-80D01*
X745D01*
X735Y-85D02*
Y-95D01*
X635Y70D02*
X630Y75D01*
X620D01*
X615Y70D01*
Y65D01*
X620Y60D01*
X630D01*
X635Y55D01*
Y50D01*
X630Y45D01*
X620D01*
X615Y50D01*
X645Y75D02*
Y45D01*
X660D01*
X665Y50D01*
Y55D01*
X660Y60D01*
X645D01*
X660D01*
X665Y65D01*
Y70D01*
X660Y75D01*
X645D01*
X675D02*
X695D01*
Y70D01*
X675Y50D01*
Y45D01*
X81Y580D02*
X76Y585D01*
X66D01*
X61Y580D01*
Y575D01*
X66Y570D01*
X76D01*
X81Y565D01*
Y560D01*
X76Y555D01*
X66D01*
X61Y560D01*
X91Y585D02*
Y555D01*
X106D01*
X111Y560D01*
Y565D01*
X106Y570D01*
X91D01*
X106D01*
X111Y575D01*
Y580D01*
X106Y585D01*
X91D01*
X141D02*
X131Y580D01*
X121Y570D01*
Y560D01*
X126Y555D01*
X136D01*
X141Y560D01*
Y565D01*
X136Y570D01*
X121D01*
X121Y712D02*
X126Y717D01*
Y727D01*
X121Y732D01*
X116D01*
X111Y727D01*
Y717D01*
X106Y712D01*
X101D01*
X96Y717D01*
Y727D01*
X101Y732D01*
X126Y702D02*
X96D01*
Y687D01*
X101Y682D01*
X106D01*
X111Y687D01*
Y702D01*
Y687D01*
X116Y682D01*
X121D01*
X126Y687D01*
Y702D01*
Y652D02*
Y672D01*
X111D01*
X116Y662D01*
Y657D01*
X111Y652D01*
X101D01*
X96Y657D01*
Y667D01*
X101Y672D01*
X21Y824D02*
X16Y829D01*
X6D01*
X1Y824D01*
Y819D01*
X6Y814D01*
X16D01*
X21Y809D01*
Y804D01*
X16Y799D01*
X6D01*
X1Y804D01*
X31Y829D02*
Y799D01*
X46D01*
X51Y804D01*
Y809D01*
X46Y814D01*
X31D01*
X46D01*
X51Y819D01*
Y824D01*
X46Y829D01*
X31D01*
X76Y799D02*
Y829D01*
X61Y814D01*
X81D01*
X450Y221D02*
X445Y226D01*
X435D01*
X430Y221D01*
Y216D01*
X435Y211D01*
X445D01*
X450Y206D01*
Y201D01*
X445Y196D01*
X435D01*
X430Y201D01*
X460Y226D02*
Y196D01*
X475D01*
X480Y201D01*
Y206D01*
X475Y211D01*
X460D01*
X475D01*
X480Y216D01*
Y221D01*
X475Y226D01*
X460D01*
X490Y221D02*
X495Y226D01*
X505D01*
X510Y221D01*
Y216D01*
X505Y211D01*
X500D01*
X505D01*
X510Y206D01*
Y201D01*
X505Y196D01*
X495D01*
X490Y201D01*
X540Y313D02*
X535Y308D01*
Y298D01*
X540Y293D01*
X545D01*
X550Y298D01*
Y308D01*
X555Y313D01*
X560D01*
X565Y308D01*
Y298D01*
X560Y293D01*
X535Y323D02*
X565D01*
Y338D01*
X560Y343D01*
X555D01*
X550Y338D01*
Y323D01*
Y338D01*
X545Y343D01*
X540D01*
X535Y338D01*
Y323D01*
X565Y373D02*
Y353D01*
X545Y373D01*
X540D01*
X535Y368D01*
Y358D01*
X540Y353D01*
X455Y465D02*
X450Y470D01*
X440D01*
X435Y465D01*
Y460D01*
X440Y455D01*
X450D01*
X455Y450D01*
Y445D01*
X450Y440D01*
X440D01*
X435Y445D01*
X465Y470D02*
Y440D01*
X480D01*
X485Y445D01*
Y450D01*
X480Y455D01*
X465D01*
X480D01*
X485Y460D01*
Y465D01*
X480Y470D01*
X465D01*
X495Y440D02*
X505D01*
X500D01*
Y470D01*
X495Y465D01*
X-755Y-490D02*
Y-515D01*
X-750Y-520D01*
X-740D01*
X-735Y-515D01*
Y-490D01*
X-725Y-495D02*
X-720Y-490D01*
X-710D01*
X-705Y-495D01*
Y-500D01*
X-710Y-505D01*
X-705Y-510D01*
Y-515D01*
X-710Y-520D01*
X-720D01*
X-725Y-515D01*
Y-510D01*
X-720Y-505D01*
X-725Y-500D01*
Y-495D01*
X-720Y-505D02*
X-710D01*
X705Y-445D02*
Y-470D01*
X710Y-475D01*
X720D01*
X725Y-470D01*
Y-445D01*
X735D02*
X755D01*
Y-450D01*
X735Y-470D01*
Y-475D01*
X450Y75D02*
Y50D01*
X455Y45D01*
X465D01*
X470Y50D01*
Y75D01*
X500D02*
X490Y70D01*
X480Y60D01*
Y50D01*
X485Y45D01*
X495D01*
X500Y50D01*
Y55D01*
X495Y60D01*
X480D01*
X-94Y470D02*
Y445D01*
X-89Y440D01*
X-79D01*
X-74Y445D01*
Y470D01*
X-44D02*
X-64D01*
Y455D01*
X-54Y460D01*
X-49D01*
X-44Y455D01*
Y445D01*
X-49Y440D01*
X-59D01*
X-64Y445D01*
X260Y480D02*
Y455D01*
X265Y450D01*
X275D01*
X280Y455D01*
Y480D01*
X305Y450D02*
Y480D01*
X290Y465D01*
X310D01*
X-360Y762D02*
Y737D01*
X-355Y732D01*
X-345D01*
X-340Y737D01*
Y762D01*
X-310Y732D02*
X-330D01*
X-310Y752D01*
Y757D01*
X-315Y762D01*
X-325D01*
X-330Y757D01*
X-130Y-405D02*
Y-430D01*
X-125Y-435D01*
X-115D01*
X-110Y-430D01*
Y-405D01*
X-100Y-435D02*
X-90D01*
X-95D01*
Y-405D01*
X-100Y-410D01*
X-17Y-492D02*
Y-463D01*
X-2D01*
X3Y-468D01*
Y-478D01*
X-2Y-482D01*
X-17D01*
X-7D02*
X3Y-492D01*
X33Y-468D02*
X28Y-463D01*
X18D01*
X13Y-468D01*
Y-487D01*
X18Y-492D01*
X28D01*
X33Y-487D01*
Y-478D01*
X23D01*
X43Y-463D02*
Y-492D01*
X58D01*
X63Y-487D01*
Y-482D01*
X58Y-478D01*
X43D01*
X58D01*
X63Y-473D01*
Y-468D01*
X58Y-463D01*
X43D01*
X73Y-497D02*
X92D01*
X122Y-468D02*
X117Y-463D01*
X107D01*
X102Y-468D01*
Y-473D01*
X107Y-478D01*
X117D01*
X122Y-482D01*
Y-487D01*
X117Y-492D01*
X107D01*
X102Y-487D01*
X132Y-463D02*
X142D01*
X137D01*
Y-492D01*
X132D01*
X142D01*
X177Y-468D02*
X172Y-463D01*
X162D01*
X157Y-468D01*
Y-487D01*
X162Y-492D01*
X172D01*
X177Y-487D01*
Y-478D01*
X167D01*
X593Y-345D02*
Y-315D01*
X608D01*
X613Y-320D01*
Y-330D01*
X608Y-335D01*
X593D01*
X603D02*
X613Y-345D01*
X623D02*
X632D01*
X628D01*
Y-315D01*
X623Y-320D01*
X667Y-315D02*
X657Y-320D01*
X647Y-330D01*
Y-340D01*
X652Y-345D01*
X662D01*
X667Y-340D01*
Y-335D01*
X662Y-330D01*
X647D01*
X693Y-345D02*
Y-315D01*
X708D01*
X713Y-320D01*
Y-330D01*
X708Y-335D01*
X693D01*
X703D02*
X713Y-345D01*
X723D02*
X732D01*
X728D01*
Y-315D01*
X723Y-320D01*
X767Y-315D02*
X747D01*
Y-330D01*
X757Y-325D01*
X762D01*
X767Y-330D01*
Y-340D01*
X762Y-345D01*
X752D01*
X747Y-340D01*
X-517Y265D02*
Y295D01*
X-502D01*
X-497Y290D01*
Y280D01*
X-502Y275D01*
X-517D01*
X-507D02*
X-497Y265D01*
X-487D02*
X-478D01*
X-482D01*
Y295D01*
X-487Y290D01*
X-448Y265D02*
Y295D01*
X-463Y280D01*
X-443D01*
X-287Y295D02*
Y325D01*
X-272D01*
X-267Y320D01*
Y310D01*
X-272Y305D01*
X-287D01*
X-277D02*
X-267Y295D01*
X-257D02*
X-248D01*
X-252D01*
Y325D01*
X-257Y320D01*
X-233D02*
X-228Y325D01*
X-218D01*
X-213Y320D01*
Y315D01*
X-218Y310D01*
X-223D01*
X-218D01*
X-213Y305D01*
Y300D01*
X-218Y295D01*
X-228D01*
X-233Y300D01*
X893Y-145D02*
Y-115D01*
X908D01*
X913Y-120D01*
Y-130D01*
X908Y-135D01*
X893D01*
X903D02*
X913Y-145D01*
X923D02*
X932D01*
X928D01*
Y-115D01*
X923Y-120D01*
X967Y-145D02*
X947D01*
X967Y-125D01*
Y-120D01*
X962Y-115D01*
X952D01*
X947Y-120D01*
X888Y-75D02*
Y-45D01*
X903D01*
X908Y-50D01*
Y-60D01*
X903Y-65D01*
X888D01*
X898D02*
X908Y-75D01*
X918D02*
X927D01*
X922D01*
Y-45D01*
X918Y-50D01*
X942Y-75D02*
X952D01*
X947D01*
Y-45D01*
X942Y-50D01*
X888Y-5D02*
Y25D01*
X903D01*
X908Y20D01*
Y10D01*
X903Y5D01*
X888D01*
X898D02*
X908Y-5D01*
X918D02*
X927D01*
X923D01*
Y25D01*
X918Y20D01*
X942D02*
X947Y25D01*
X957D01*
X962Y20D01*
Y0D01*
X957Y-5D01*
X947D01*
X942Y0D01*
Y20D01*
X715Y105D02*
Y135D01*
X730D01*
X735Y130D01*
Y120D01*
X730Y115D01*
X715D01*
X725D02*
X735Y105D01*
X745Y110D02*
X750Y105D01*
X760D01*
X765Y110D01*
Y130D01*
X760Y135D01*
X750D01*
X745Y130D01*
Y125D01*
X750Y120D01*
X765D01*
X261Y605D02*
Y635D01*
X276D01*
X281Y630D01*
Y620D01*
X276Y615D01*
X261D01*
X271D02*
X281Y605D01*
X291Y630D02*
X296Y635D01*
X306D01*
X311Y630D01*
Y625D01*
X306Y620D01*
X311Y615D01*
Y610D01*
X306Y605D01*
X296D01*
X291Y610D01*
Y615D01*
X296Y620D01*
X291Y625D01*
Y630D01*
X296Y620D02*
X306D01*
X261Y675D02*
Y705D01*
X276D01*
X281Y700D01*
Y690D01*
X276Y685D01*
X261D01*
X271D02*
X281Y675D01*
X291Y705D02*
X311D01*
Y700D01*
X291Y680D01*
Y675D01*
X261Y745D02*
Y775D01*
X276D01*
X281Y770D01*
Y760D01*
X276Y755D01*
X261D01*
X271D02*
X281Y745D01*
X311Y775D02*
X301Y770D01*
X291Y760D01*
Y750D01*
X296Y745D01*
X306D01*
X311Y750D01*
Y755D01*
X306Y760D01*
X291D01*
X-124Y710D02*
Y740D01*
X-109D01*
X-104Y735D01*
Y725D01*
X-109Y720D01*
X-124D01*
X-114D02*
X-104Y710D01*
X-74Y740D02*
X-94D01*
Y725D01*
X-84Y730D01*
X-79D01*
X-74Y725D01*
Y715D01*
X-79Y710D01*
X-89D01*
X-94Y715D01*
X590Y190D02*
Y220D01*
X605D01*
X610Y215D01*
Y205D01*
X605Y200D01*
X590D01*
X600D02*
X610Y190D01*
X635D02*
Y220D01*
X620Y205D01*
X640D01*
X690Y300D02*
Y330D01*
X705D01*
X710Y325D01*
Y315D01*
X705Y310D01*
X690D01*
X700D02*
X710Y300D01*
X720Y325D02*
X725Y330D01*
X735D01*
X740Y325D01*
Y320D01*
X735Y315D01*
X730D01*
X735D01*
X740Y310D01*
Y305D01*
X735Y300D01*
X725D01*
X720Y305D01*
X580Y440D02*
Y470D01*
X595D01*
X600Y465D01*
Y455D01*
X595Y450D01*
X580D01*
X590D02*
X600Y440D01*
X630D02*
X610D01*
X630Y460D01*
Y465D01*
X625Y470D01*
X615D01*
X610Y465D01*
X455Y550D02*
Y580D01*
X470D01*
X475Y575D01*
Y565D01*
X470Y560D01*
X455D01*
X465D02*
X475Y550D01*
X485D02*
X495D01*
X490D01*
Y580D01*
X485Y575D01*
X589Y-689D02*
Y-719D01*
X609D01*
X619D02*
X629D01*
X624D01*
Y-689D01*
X619Y-694D01*
X255Y-585D02*
X245D01*
X250D01*
Y-610D01*
X245Y-615D01*
X240D01*
X235Y-610D01*
X285Y-615D02*
X265D01*
X285Y-595D01*
Y-590D01*
X280Y-585D01*
X270D01*
X265Y-590D01*
X-692Y212D02*
X-700Y218D01*
X-696Y215D01*
X-710Y195D01*
X-717Y193D01*
X-721Y196D01*
X-722Y203D01*
X-700Y182D02*
X-692Y176D01*
X-696Y179D01*
X-679Y204D01*
X-686Y203D01*
X-800Y-250D02*
X-805Y-245D01*
X-815D01*
X-820Y-250D01*
Y-270D01*
X-815Y-275D01*
X-805D01*
X-800Y-270D01*
X-790Y-250D02*
X-785Y-245D01*
X-775D01*
X-770Y-250D01*
Y-255D01*
X-775Y-260D01*
X-770Y-265D01*
Y-270D01*
X-775Y-275D01*
X-785D01*
X-790Y-270D01*
Y-265D01*
X-785Y-260D01*
X-790Y-255D01*
Y-250D01*
X-785Y-260D02*
X-775D01*
X-570Y-585D02*
X-575Y-580D01*
X-585D01*
X-590Y-585D01*
Y-605D01*
X-585Y-610D01*
X-575D01*
X-570Y-605D01*
X-560Y-580D02*
X-540D01*
Y-585D01*
X-560Y-605D01*
Y-610D01*
X415Y-590D02*
X410Y-585D01*
X400D01*
X395Y-590D01*
Y-610D01*
X400Y-615D01*
X410D01*
X415Y-610D01*
X445Y-585D02*
X435Y-590D01*
X425Y-600D01*
Y-610D01*
X430Y-615D01*
X440D01*
X445Y-610D01*
Y-605D01*
X440Y-600D01*
X425D01*
X485Y-590D02*
X480Y-585D01*
X470D01*
X465Y-590D01*
Y-610D01*
X470Y-615D01*
X480D01*
X485Y-610D01*
X515Y-585D02*
X495D01*
Y-600D01*
X505Y-595D01*
X510D01*
X515Y-600D01*
Y-610D01*
X510Y-615D01*
X500D01*
X495Y-610D01*
X485Y-260D02*
X480Y-255D01*
X470D01*
X465Y-260D01*
Y-280D01*
X470Y-285D01*
X480D01*
X485Y-280D01*
X510Y-285D02*
Y-255D01*
X495Y-270D01*
X515D01*
X815Y-516D02*
X810Y-511D01*
X800D01*
X795Y-516D01*
Y-536D01*
X800Y-541D01*
X810D01*
X815Y-536D01*
X825Y-516D02*
X830Y-511D01*
X840D01*
X845Y-516D01*
Y-521D01*
X840Y-526D01*
X835D01*
X840D01*
X845Y-531D01*
Y-536D01*
X840Y-541D01*
X830D01*
X825Y-536D01*
X-620Y470D02*
X-625Y475D01*
X-635D01*
X-640Y470D01*
Y450D01*
X-635Y445D01*
X-625D01*
X-620Y450D01*
X-590Y445D02*
X-610D01*
X-590Y465D01*
Y470D01*
X-595Y475D01*
X-605D01*
X-610Y470D01*
X-610Y530D02*
X-615Y535D01*
X-625D01*
X-630Y530D01*
Y510D01*
X-625Y505D01*
X-615D01*
X-610Y510D01*
X-600Y505D02*
X-590D01*
X-595D01*
Y535D01*
X-600Y530D01*
D12*
X-748Y-455D02*
G03*
X-748Y-455I-5J0D01*
G01*
X-960Y-195D02*
G03*
X-960Y-195I-5J0D01*
G01*
X-219Y-600D02*
G03*
X-219Y-600I-5J0D01*
G01*
X-159Y-336D02*
G03*
X-159Y-336I-5J0D01*
G01*
X-448Y720D02*
G03*
X-448Y720I-5J0D01*
G01*
D13*
X-360Y666D02*
G03*
X-360Y666I-12J0D01*
G01*
D14*
X419Y307D02*
X521D01*
X419Y362D02*
X521D01*
Y307D02*
Y362D01*
X419Y307D02*
Y362D01*
Y377D02*
X521D01*
X419Y432D02*
X521D01*
Y377D02*
Y432D01*
X419Y377D02*
Y432D01*
X214Y308D02*
X376D01*
X214Y442D02*
X376D01*
Y308D02*
Y442D01*
X214Y308D02*
Y442D01*
X419Y237D02*
X521D01*
X419Y292D02*
X521D01*
Y237D02*
Y292D01*
X419Y237D02*
Y292D01*
X399Y-97D02*
X561D01*
X399Y37D02*
X561D01*
Y-97D02*
Y37D01*
X399Y-97D02*
Y37D01*
X604Y-88D02*
X706D01*
X604Y-33D02*
X706D01*
Y-88D02*
Y-33D01*
X604Y-88D02*
Y-33D01*
Y-158D02*
X706D01*
X604Y-103D02*
X706D01*
Y-158D02*
Y-103D01*
X604Y-158D02*
Y-103D01*
Y-18D02*
X706D01*
X604Y37D02*
X706D01*
Y-18D02*
Y37D01*
X604Y-18D02*
Y37D01*
X-10Y-150D02*
Y-10D01*
X-200Y-150D02*
Y-10D01*
Y-150D02*
X-10D01*
X-200Y-10D02*
X-10D01*
X-644Y-569D02*
X-496D01*
X-644Y-491D02*
X-496D01*
Y-569D02*
Y-491D01*
X-644Y-569D02*
Y-491D01*
X-811Y-393D02*
X-756D01*
X-811Y-291D02*
X-756D01*
X-811Y-393D02*
Y-291D01*
X-756Y-393D02*
Y-291D01*
X-26Y379D02*
X108D01*
X-26Y541D02*
X108D01*
X-26Y379D02*
Y541D01*
X108Y379D02*
Y541D01*
X-20Y732D02*
Y787D01*
X82Y732D02*
Y787D01*
X-20D02*
X82D01*
X-20Y732D02*
X82D01*
X-20Y662D02*
Y717D01*
X82Y662D02*
Y717D01*
X-20D02*
X82D01*
X-20Y662D02*
X82D01*
X-20Y592D02*
Y647D01*
X82Y592D02*
Y647D01*
X-20D02*
X82D01*
X-20Y592D02*
X82D01*
X539Y-441D02*
Y-293D01*
X461Y-441D02*
Y-293D01*
X539D01*
X461Y-441D02*
X539D01*
X462Y-571D02*
Y-469D01*
X517Y-571D02*
Y-469D01*
X462Y-571D02*
X517D01*
X462Y-469D02*
X517D01*
X392Y-571D02*
Y-469D01*
X447Y-571D02*
Y-469D01*
X392Y-571D02*
X447D01*
X392Y-469D02*
X447D01*
X-578Y498D02*
X-502D01*
X-578Y542D02*
X-502D01*
Y498D02*
Y542D01*
X-578Y498D02*
Y542D01*
Y438D02*
X-502D01*
X-578Y482D02*
X-502D01*
Y438D02*
Y482D01*
X-578Y438D02*
Y482D01*
X-212Y334D02*
Y410D01*
X-168Y334D02*
Y410D01*
X-212Y334D02*
X-168D01*
X-212Y410D02*
X-168D01*
X-432Y245D02*
Y321D01*
X-388Y245D02*
Y321D01*
X-432Y245D02*
X-388D01*
X-432Y321D02*
X-388D01*
X690Y-368D02*
X766D01*
X690Y-412D02*
X766D01*
X690D02*
Y-368D01*
X766Y-412D02*
Y-368D01*
X594D02*
X670D01*
X594Y-412D02*
X670D01*
X594D02*
Y-368D01*
X670Y-412D02*
Y-368D01*
D15*
X165Y-165D02*
Y-5D01*
X5D02*
X165D01*
X5Y-165D02*
Y-5D01*
Y-165D02*
X165D01*
X-165Y5D02*
Y165D01*
Y5D02*
X-5D01*
Y165D01*
X-165D02*
X-5D01*
X165Y5D02*
Y165D01*
X5D02*
X165D01*
X5Y5D02*
Y165D01*
Y5D02*
X165D01*
M02*
