M48
;Layer_Color=9474304
;FILE_FORMAT=2:5
INCH,LZ
;TYPE=PLATED
T1F00S00C0.01200
T2F00S00C0.04016
T3F00S00C0.04331
T4F00S00C0.07000
T5F00S00C0.13386
%
T01
X02255Y00355
X023Y0066
X0229Y00725
X02235Y0073
X0221Y00865
X022Y0092
X02175Y00965
X02135Y01015
X02955Y0055
X02055Y0064
X02Y00685
X01875Y00665
Y0071
Y0056
X0181
Y0042
X0171Y0064
X0167Y00965
X01875Y0097
X0192Y0092
X01945Y0088
X0156Y0086
X0118Y0073
X0105
X0088
X0091Y0059
X00675Y00515
X007Y00725
X0112Y0047
X01295Y00295
X013Y0115
X0117
X0056Y0066
X0042Y0062
X013Y0146
X0125Y0151
X0122Y0174
X0115Y0169
Y0183
X0127Y02
X0134Y0217
X0119Y0222
X0106Y0242
X0196Y0247
X0199Y0227
X0197Y021
X0202Y019
X0208Y0149
X0193Y0151
X0163Y0146
T02
X0075Y0097
X0085
X0152Y0038
X0162
X0149Y0185
X0139
X0114Y0195
X0104
T03
X022Y012
X023
X024
X025
X0311
Y011
Y01
Y009
Y008
Y007
Y006
Y005
Y004
X021Y012
X02
X019
X018
X017
X016
X0053Y013
X0043
X0063
X0073
X0083
X0093
X0103
X0113
X0123
X0133
X016
X017
X018
X019
X02
X021
X022
X023
X024
X025
X0311
T04
X02156Y002
X02312
X02468
X02
X00756
X006
X00444
X00288
T05
X00528Y0160485
X026583
X01593Y0317965
M30
