M48
;Layer_Color=9474304
;FILE_FORMAT=2:5
INCH,LZ
;TYPE=PLATED
T1F00S00C0.01200
T2F00S00C0.04331
T3F00S00C0.13386
%
T01
X-00945Y-00655
X-0078Y-00415
X-0043Y-0053
X-0028Y-0041
X-0026Y-0033
X0001Y-0048
X0024Y-0034
X00615Y-0035
X00545Y-005
X0038Y-0066
X00825Y-00185
X00885Y-0003
X00745Y0015
X00685Y00215
X0071Y00365
X0055Y0053
X0025Y0056
X00215Y0047
X0014Y0052
X-0005Y0039
X-0017Y0051
X-003
Y0056
X-00395Y00635
X-00525Y00615
X-005Y004
X-0056Y0037
X-0048Y0023
X-004Y0017
X-0027Y002
X-00225Y-0005
X-00095Y-0002
X0Y0
X0029Y001
X00355Y00275
X0027Y0072
X-00135Y007
X-0045Y-0013
X00485
T02
X-0015Y-006
X-0005
X0005
X0015
X-0092388Y-0013436
X-0086796Y-0005145
X-0081204Y0003145
X-0075612Y0011436
T03
X-01065Y-0057815
X010653
X0Y0099665
M30
